<svg id="Layer_1" data-name="Layer 1" xmlns="http://www.w3.org/2000/svg" viewBox="0 0 24 24"><defs>
<style>
.cls-1{fill:none;}.cls-2,.cls-3{fill:#0088A5;}.cls-3{fill-rule:evenodd;isolation:isolate;opacity:0.3;}
</style></defs><g id="Stockholm-icons-_-Code-_-Code" data-name="Stockholm-icons-/-Code-/-Code"><rect id="bound" class="cls-1" width="24" height="24"/><path id="Combined-Shape" class="cls-2" d="M17.27,8.69a1,1,0,0,1,1.46-1.38l4,4.25a1,1,0,0,1,0,1.38l-4,4.25a1,1,0,0,1-1.46-1.38l3.36-3.56Zm-10.54,0L3.37,12.25l3.36,3.56a1,1,0,1,1-1.46,1.38l-4-4.25a1,1,0,0,1,0-1.38l4-4.25A1,1,0,1,1,6.73,8.69Z"/><path id="Rectangle-28" class="cls-3" d="M14.07,4.27h0a1,1,0,0,1,.71,1.23L11.15,19a1,1,0,0,1-1.22.71h0a1,1,0,0,1-.71-1.23L12.85,5A1,1,0,0,1,14.07,4.27Z"/></g></svg>