<svg id="Layer_1" data-name="Layer 1" xmlns="http://www.w3.org/2000/svg" viewBox="0 0 24 24"><defs><style>.cls-1{fill:none;}.cls-2,.cls-3{fill:#0088A5;fill-rule:evenodd;}.cls-2{isolation:isolate;opacity:0.3;}</style></defs><g id="Stockholm-icons-_-Code-_-Compiling" data-name="Stockholm-icons-/-Code-/-Compiling"><rect id="bound" class="cls-1" width="24" height="24"/><path id="Combined-Shape" class="cls-2" d="M2.56,10.68,4.68,8.56a1.49,1.49,0,0,1,2.12,0l2.12,2.12a1.49,1.49,0,0,1,0,2.12L6.8,14.92a1.49,1.49,0,0,1-2.12,0L2.56,12.8A1.49,1.49,0,0,1,2.56,10.68Zm12,0,2.12-2.12a1.49,1.49,0,0,1,2.12,0l2.12,2.12a1.49,1.49,0,0,1,0,2.12L18.8,14.92a1.49,1.49,0,0,1-2.12,0L14.56,12.8A1.49,1.49,0,0,1,14.56,10.68Z"/><path id="Combined-Shape-2" data-name="Combined-Shape" class="cls-3" d="M8.56,16.68l2.12-2.12a1.49,1.49,0,0,1,2.12,0l2.12,2.12a1.49,1.49,0,0,1,0,2.12L12.8,20.92a1.49,1.49,0,0,1-2.12,0L8.56,18.8A1.49,1.49,0,0,1,8.56,16.68Zm0-12,2.12-2.12a1.49,1.49,0,0,1,2.12,0l2.12,2.12a1.49,1.49,0,0,1,0,2.12L12.8,8.92a1.49,1.49,0,0,1-2.12,0L8.56,6.8A1.49,1.49,0,0,1,8.56,4.68Z"/></g></svg>