<svg id="Layer_1" data-name="Layer 1" xmlns="http://www.w3.org/2000/svg" viewBox="0 0 24 24"><defs><style>.cls-1{fill:none;}.cls-2,.cls-3{fill:#0088A5;}.cls-2{isolation:isolate;opacity:0.3;}.cls-3{fill-rule:evenodd;}</style></defs><g id="Stockholm-icons-_-Files-_-File" data-name="Stockholm-icons-/-Files-/-File"><polygon id="Shape" class="cls-1" points="0 0 24 0 24 24 0 24 0 0"/><path id="Combined-Shape" class="cls-2" d="M5.86,2h7.88a1.58,1.58,0,0,1,1,.35l4.76,4A1.51,1.51,0,0,1,20,7.53V20.08C20,21.87,20,22,18.14,22H5.86C4,22,4,21.87,4,20.08V3.92C4,2.13,4,2,5.86,2Z"/><path id="Rectangle" class="cls-3" d="M7,11h7a1,1,0,0,1,1,1h0a1,1,0,0,1-1,1H7a1,1,0,0,1-1-1H6A1,1,0,0,1,7,11Z"/><path id="Rectangle-Copy" class="cls-3" d="M7,15h3a1,1,0,0,1,1,1h0a1,1,0,0,1-1,1H7a1,1,0,0,1-1-1H6A1,1,0,0,1,7,15Z"/></g></svg>