<?xml version="1.0" encoding="utf-8"?>
<!-- Generator: Adobe Illustrator 24.3.0, SVG Export Plug-In . SVG Version: 6.00 Build 0)  -->
<svg version="1.1" id="Layer_1" xmlns="http://www.w3.org/2000/svg" xmlns:xlink="http://www.w3.org/1999/xlink" x="0px" y="0px"
	 viewBox="0 0 36 36" style="enable-background:new 0 0 36 36;" xml:space="preserve">
<style type="text/css">
	.st0{fill:none;}
	.st1{opacity:0.3;fill-rule:evenodd;clip-rule:evenodd;fill:#0088A5;enable-background:new    ;}
	.st2{fill:#0088A5;}
</style>
<desc>Created with Sketch.</desc>
<g id="Stockholm-icons-_x2F_-Code-_x2F_-Git2">
	<rect id="Rectangle-5" x="5.5" y="5.5" class="st0" width="24.9" height="24.9"/>
	<path id="Rectangle" class="st1" d="M11.8,13.8L11.8,13.8c0.6,0,1,0.5,1,1v6.2c0,0.6-0.5,1-1,1l0,0c-0.6,0-1-0.5-1-1v-6.2
		C10.7,14.3,11.2,13.8,11.8,13.8z"/>
	<path id="Oval-7-Copy" class="st2" d="M11.8,27.4c1.1,0,2.1-0.9,2.1-2.1s-0.9-2.1-2.1-2.1s-2.1,0.9-2.1,2.1S10.6,27.4,11.8,27.4z
		 M11.8,29.4c-2.3,0-4.2-1.9-4.2-4.2s1.9-4.2,4.2-4.2s4.2,1.9,4.2,4.2S14.1,29.4,11.8,29.4z"/>
	<path id="Rectangle-Copy" class="st1" d="M24.2,13.8L24.2,13.8c0.6,0,1,0.5,1,1v6.2c0,0.6-0.5,1-1,1l0,0c-0.6,0-1-0.5-1-1v-6.2
		C23.2,14.3,23.7,13.8,24.2,13.8z"/>
	<path id="Oval-7-Copy-2" class="st2" d="M24.2,27.4c1.1,0,2.1-0.9,2.1-2.1s-0.9-2.1-2.1-2.1c-1.1,0-2.1,0.9-2.1,2.1
		S23.1,27.4,24.2,27.4z M24.2,29.4c-2.3,0-4.2-1.9-4.2-4.2s1.9-4.2,4.2-4.2s4.2,1.9,4.2,4.2S26.5,29.4,24.2,29.4z"/>
	<path id="Oval-7" class="st2" d="M11.8,12.8c1.1,0,2.1-0.9,2.1-2.1s-0.9-2.1-2.1-2.1s-2.1,0.9-2.1,2.1S10.6,12.8,11.8,12.8z
		 M11.8,14.9c-2.3,0-4.2-1.9-4.2-4.2s1.9-4.2,4.2-4.2s4.2,1.9,4.2,4.2S14.1,14.9,11.8,14.9z"/>
	<path id="Oval-7-Copy-3" class="st2" d="M24.2,12.8c1.1,0,2.1-0.9,2.1-2.1s-0.9-2.1-2.1-2.1c-1.1,0-2.1,0.9-2.1,2.1
		S23.1,12.8,24.2,12.8z M24.2,14.9c-2.3,0-4.2-1.9-4.2-4.2s1.9-4.2,4.2-4.2s4.2,1.9,4.2,4.2S26.5,14.9,24.2,14.9z"/>
</g>
</svg>
