<?xml version="1.0" encoding="utf-8"?>
<!-- Generator: Adobe Illustrator 25.3.0, SVG Export Plug-In . SVG Version: 6.00 Build 0)  -->
<svg version="1.1" id="Layer_1" xmlns="http://www.w3.org/2000/svg" xmlns:xlink="http://www.w3.org/1999/xlink" x="0px" y="0px"
	 viewBox="0 0 17 17" style="enable-background:new 0 0 17 17;" xml:space="preserve">
<style type="text/css">
	.st0{fill:#14AAF5;}
</style>
<path class="st0" d="M1.1,16.5h1.8c0.1,0,0.3-0.1,0.3-0.3c0,0,0,0,0,0v-0.7h10.6v0.7c0,0.1,0.1,0.3,0.3,0.3c0,0,0,0,0,0h1.8
	c0.1,0,0.3-0.1,0.3-0.3c0,0,0,0,0,0v-2c0-0.2-0.1-0.3-0.3-0.3h-0.6V2.9h0.6c0.2,0,0.3-0.1,0.3-0.3v-2c0-0.1-0.1-0.3-0.3-0.3
	c0,0,0,0,0,0h-1.8c-0.1,0-0.3,0.1-0.3,0.3c0,0,0,0,0,0v0.7H3.2V0.7c0-0.1-0.1-0.3-0.3-0.3c0,0,0,0,0,0H1.1c-0.1,0-0.3,0.1-0.3,0.3
	c0,0,0,0,0,0v2c0,0.2,0.1,0.3,0.3,0.3h0.6v11.1H1.1c-0.2,0-0.3,0.1-0.3,0.3v2C0.8,16.4,0.9,16.5,1.1,16.5
	C1.1,16.5,1.1,16.5,1.1,16.5z M15.7,16h-1.3v-1.4h1.3V16z M14.4,1h1.3v1.4h-1.3V1z M1.3,1h1.3v1.4H1.3V1z M2.3,2.9h0.6
	c0.2,0,0.3-0.1,0.3-0.3V2h10.6v0.7c0,0.2,0.1,0.3,0.3,0.3h0.6v11.1h-0.6c-0.2,0-0.3,0.1-0.3,0.3V15H3.2v-0.7c0-0.2-0.1-0.3-0.3-0.3
	H2.3V2.9z M1.3,14.6h1.3V16H1.3V14.6z"/>
<path class="st0" d="M5.9,12H5.6c-0.2,0-0.3,0.1-0.3,0.3c0,0.2,0.1,0.3,0.3,0.3h0.5l0.5,1.7c0,0.1,0.1,0.2,0.3,0.2h3.4
	c0.1,0,0.2-0.1,0.3-0.2l0.4-1.7h0.4c0.2,0,0.3-0.1,0.3-0.3c0-0.2-0.1-0.3-0.3-0.3h-0.2l0.8-3.2c0-0.1,0-0.1,0-0.2l-3.2-6
	C8.7,2.5,8.5,2.5,8.4,2.5c0,0-0.1,0.1-0.1,0.1l-3.2,6c0,0.1,0,0.1,0,0.2L5.9,12z M10.1,13.9H7l-0.4-1.4h3.7L10.1,13.9z M8.5,7.5
	C8.8,7.5,9,7.8,9,8c0,0.3-0.2,0.5-0.5,0.5C8.2,8.5,8,8.3,8,8l0,0C8,7.8,8.2,7.5,8.5,7.5z M8.2,3.9V7C7.7,7.2,7.4,7.8,7.5,8.3
	C7.7,8.8,8.2,9.2,8.8,9c0.5-0.2,0.9-0.7,0.7-1.3C9.4,7.4,9.1,7.1,8.8,7V3.9l2.6,4.9L10.6,12h-4L5.6,8.8L8.2,3.9z"/>
</svg>
