<?xml version="1.0" encoding="utf-8"?>
<!-- Generator: Adobe Illustrator 24.3.0, SVG Export Plug-In . SVG Version: 6.00 Build 0)  -->
<svg version="1.1" id="Layer_2" xmlns="http://www.w3.org/2000/svg" xmlns:xlink="http://www.w3.org/1999/xlink" x="0px" y="0px"
	 viewBox="0 0 36 36" style="enable-background:new 0 0 36 36;" xml:space="preserve">
<style type="text/css">
	.st0{fill:none;}
	.st1{opacity:0.3;fill:#0088A5;enable-background:new    ;}
	.st2{fill:#0088A5;}
</style>
<desc>Created with Sketch.</desc>
<g id="Stockholm-icons-_x2F_-Communication-_x2F_-Group_1_">
	<polygon id="Shape_1_" class="st0" points="2,1.7 34,1.7 34,33.7 2,33.7 	"/>
	<path id="Combined-Shape_3_" class="st1" d="M26,20.4c-2.2,0-4-1.8-4-4s1.8-4,4-4s4,1.8,4,4S28.2,20.4,26,20.4z M14,16.4
		c-2.9,0-5.3-2.4-5.3-5.3s2.4-5.3,5.3-5.3s5.3,2.4,5.3,5.3S16.9,16.4,14,16.4z"/>
	<path id="Combined-Shape_2_" class="st2" d="M25.4,21.7c4.5,0,8.2,2.3,8.5,7.2c0,0.2,0,0.8-0.7,0.8h-5.1
		C28.1,26.7,27.1,23.9,25.4,21.7z M2,28.6C2.5,22.3,7.7,19,14,19c6.4,0,11.6,3.1,12,9.6c0,0.3,0,1.1-1,1.1c-4.9,0-12.3,0-22,0
		C2.7,29.7,2,29,2,28.6z"/>
</g>
</svg>
