<?xml version="1.0" encoding="utf-8"?>
<!-- Generator: Adobe Illustrator 24.3.0, SVG Export Plug-In . SVG Version: 6.00 Build 0)  -->
<svg version="1.1" id="Layer_1" xmlns="http://www.w3.org/2000/svg" xmlns:xlink="http://www.w3.org/1999/xlink" x="0px" y="0px"
	 viewBox="0 0 36 36" style="enable-background:new 0 0 36 36;" xml:space="preserve">
<style type="text/css">
	.st0{fill:none;}
	.st1{opacity:0.3;fill:#0088A5;enable-background:new    ;}
	.st2{fill-rule:evenodd;clip-rule:evenodd;fill:#0088A5;}
</style>
<desc>Created with Sketch.</desc>
<g id="Stockholm-icons-_x2F_-Devices-_x2F_-Headphones">
	<rect id="bound" x="1.7" y="1.7" class="st0" width="32.5" height="32.5"/>
	<path id="Combined-Shape" class="st1" d="M27.5,23.4V18c0-5.2-4.2-9.5-9.5-9.5S8.5,12.8,8.5,18v5.4H27.5z M30.2,23.4H5.8V18
		c0-6.7,5.5-12.2,12.2-12.2S30.2,11.3,30.2,18V23.4z"/>
	<path id="Combined-Shape_1_" class="st2" d="M8.5,20.7h1.4c1.5,0,2.7,1.2,2.7,2.7v4.1c0,1.5-1.2,2.7-2.7,2.7H8.5
		c-1.5,0-2.7-1.2-2.7-2.7v-4.1C5.8,21.9,7,20.7,8.5,20.7z M26.1,20.7h1.4c1.5,0,2.7,1.2,2.7,2.7v4.1c0,1.5-1.2,2.7-2.7,2.7h-1.4
		c-1.5,0-2.7-1.2-2.7-2.7v-4.1C23.4,21.9,24.6,20.7,26.1,20.7z"/>
</g>
</svg>
