<svg id="Layer_1" data-name="Layer 1" xmlns="http://www.w3.org/2000/svg" viewBox="0 0 24 24"><defs><style>.cls-1{fill:none;}.cls-2,.cls-3{fill:#0088A5;}.cls-2{fill-rule:evenodd;isolation:isolate;opacity:0.3;}</style></defs><g id="Stockholm-icons-_-Shopping-_-Loader" data-name="Stockholm-icons-/-Shopping-/-Loader"><rect id="bound" class="cls-1" width="24" height="24"/><path id="Combined-Shape" class="cls-2" d="M8,4A1,1,0,0,1,9,5V17h9a1,1,0,0,1,0,2H9a1,1,0,0,1-1-1,1,1,0,0,1-1-1V6H5A1,1,0,0,1,5,4Z"/><path id="Rectangle-63-Copy" class="cls-2" d="M15,7h0a4,4,0,0,1,4,4h0a4,4,0,0,1-4,4h0a4,4,0,0,1-4-4h0A4,4,0,0,1,15,7Z"/><circle id="Oval" class="cls-3" cx="8" cy="18" r="3"/></g></svg>