<?xml version="1.0" encoding="utf-8"?>
<!-- Generator: Adobe Illustrator 24.3.0, SVG Export Plug-In . SVG Version: 6.00 Build 0)  -->
<svg version="1.1" id="Capa_1" xmlns="http://www.w3.org/2000/svg" xmlns:xlink="http://www.w3.org/1999/xlink" x="0px" y="0px"
	 viewBox="0 0 36 36" style="enable-background:new 0 0 36 36;" xml:space="preserve">
<style type="text/css">
	.st0{fill:#0088A5;}
	.st1{opacity:0.3;}
</style>
<g>
	<g>
		<path class="st0" d="M18,4.8c-5,0-9,4.1-9,9s4.1,9,9,9c5,0,9-4.1,9-9S23,4.8,18,4.8z M22.8,12.6l-1.6,2l0.2,2.6
			c0,0.3-0.1,0.6-0.3,0.7c-0.1,0.1-0.3,0.2-0.5,0.2c-0.1,0-0.2,0-0.3-0.1L18,17l-2.2,0.9C15.5,18,15.2,18,15,17.8
			c-0.2-0.2-0.4-0.4-0.3-0.7l0.2-2.6l-1.6-2c-0.2-0.2-0.2-0.5-0.1-0.8s0.3-0.5,0.6-0.5l2.3-0.6l1.3-2.2c0.3-0.5,1.1-0.5,1.4,0
			l1.3,2.2l2.3,0.6c0.3,0.1,0.5,0.3,0.6,0.5C23,12.1,22.9,12.4,22.8,12.6z"/>
	</g>
</g>
<g class="st1">
	<g>
		<path class="st0" d="M8.8,19.2L5,25.8c-0.2,0.3-0.1,0.6,0.1,0.9C5.2,27,5.6,27.1,5.9,27l4.8-1.3l1.3,4.8c0.1,0.3,0.4,0.6,0.7,0.6
			c0,0,0.1,0,0.1,0c0.3,0,0.6-0.2,0.7-0.4l3.6-6.2C13.5,24.2,10.5,22.2,8.8,19.2z"/>
	</g>
</g>
<g class="st1">
	<g>
		<path class="st0" d="M31,25.8l-3.8-6.6c-1.7,2.9-4.8,5-8.3,5.3l3.6,6.2c0.1,0.3,0.4,0.4,0.7,0.4c0,0,0.1,0,0.1,0
			c0.3,0,0.6-0.3,0.7-0.6l1.3-4.8l4.8,1.3c0.3,0.1,0.7,0,0.9-0.3C31.2,26.5,31.2,26.1,31,25.8z"/>
	</g>
</g>
</svg>
