<?xml version="1.0" encoding="utf-8"?>
<!-- Generator: Adobe Illustrator 24.3.0, SVG Export Plug-In . SVG Version: 6.00 Build 0)  -->
<svg version="1.1" id="Layer_1" xmlns="http://www.w3.org/2000/svg" xmlns:xlink="http://www.w3.org/1999/xlink" x="0px" y="0px"
	 viewBox="0 0 36 36" style="enable-background:new 0 0 36 36;" xml:space="preserve">
<style type="text/css">
	.st0{opacity:0.3;fill:#0088A5;enable-background:new    ;}
	.st1{fill:#0088A5;}
</style>
<desc>Created with Sketch.</desc>
<g id="Stockholm-icons-_x2F_-General-_x2F_-Search">
	<path id="Path-2" class="st0" d="M21.1,23.8c-0.6-0.6-0.6-1.4,0-2c0.6-0.6,1.4-0.6,2,0l5.6,5.6c0.6,0.6,0.6,1.4,0,2
		c-0.6,0.6-1.4,0.6-2,0L21.1,23.8z"/>
	<path id="Path" class="st1" d="M16.5,22.8c3.9,0,7.1-3.2,7.1-7.1s-3.2-7.1-7.1-7.1s-7.1,3.2-7.1,7.1S12.6,22.8,16.5,22.8z
		 M16.5,25.6c-5.5,0-9.9-4.4-9.9-9.9s4.4-9.9,9.9-9.9s9.9,4.4,9.9,9.9S21.9,25.6,16.5,25.6z"/>
</g>
</svg>
