<svg id="Layer_1" data-name="Layer 1" xmlns="http://www.w3.org/2000/svg" viewBox="0 0 24 24"><defs><style>.cls-1{fill:none;}.cls-2,.cls-3{fill:#0088A5;fill-rule:evenodd;}.cls-2{isolation:isolate;opacity:0.3;}</style></defs><g id="Stockholm-icons-_-General-_-Shield-check" data-name="Stockholm-icons-/-General-/-Shield-check"><rect id="bound" class="cls-1" width="24" height="24"/><path id="Path-50" class="cls-2" d="M4,4l7.63-1.43a1.84,1.84,0,0,1,.74,0L20,4v9.28a8.51,8.51,0,0,1-4,7.22l-3.47,2.17a1,1,0,0,1-1.06,0L8,20.5a8.51,8.51,0,0,1-4-7.22Z"/><path id="check-path" class="cls-3" d="M11.18,14.75a1,1,0,0,1-.68-.29L8.59,12.55A1,1,0,0,1,9.93,11.2l1.25,1.25,3.16-3.16a.91.91,0,0,1,1.34,0,.93.93,0,0,1,0,1.34l-3.83,3.83A1,1,0,0,1,11.18,14.75Z"/></g></svg>