<svg id="Layer_1" data-name="Layer 1" xmlns="http://www.w3.org/2000/svg" viewBox="0 0 24 24"><defs><style>.cls-1{fill:none;}.cls-2{fill:#0088A5;fill-rule:evenodd;}</style></defs><g id="Stockholm-icons-_-General-_-Star" data-name="Stockholm-icons-/-General-/-Star"><polygon id="Shape" class="cls-1" points="0 0 24 0 24 24 0 24 0 0"/><path id="Star" class="cls-2" d="M12,18,7.92,20.15a1,1,0,0,1-1.35-.42,1,1,0,0,1-.11-.64l.78-4.54-3.3-3.23a1,1,0,0,1,0-1.41,1,1,0,0,1,.57-.29L9.06,9l2-4.13a1,1,0,0,1,1.34-.46,1,1,0,0,1,.46.46l2,4.13,4.57.67a1,1,0,0,1,.84,1.13,1,1,0,0,1-.29.57l-3.3,3.23.78,4.54a1,1,0,0,1-.82,1.16,1.09,1.09,0,0,1-.64-.1Z"/></g></svg>