<?xml version="1.0" encoding="utf-8"?>
<!-- Generator: Adobe Illustrator 24.3.0, SVG Export Plug-In . SVG Version: 6.00 Build 0)  -->
<svg version="1.1" id="Capa_1" xmlns="http://www.w3.org/2000/svg" xmlns:xlink="http://www.w3.org/1999/xlink" x="0px" y="0px"
	 viewBox="0 0 36 36" style="enable-background:new 0 0 36 36;" xml:space="preserve">
<style type="text/css">
	.st0{fill:#0088A5;}
	.st1{opacity:0.3;}
</style>
<g>
	<g>
		<path class="st0" d="M32.2,13.3l-1.6-6.4c-0.2-0.8-0.9-1.3-1.7-1.3H7.2c-0.8,0-1.5,0.6-1.7,1.3l-1.6,6.4c0,0.1,0,0.1,0,0.2
			C3.8,16,5.7,18,8,18c1.4,0,2.6-0.7,3.3-1.7c0.8,1,2,1.7,3.3,1.7s2.6-0.7,3.3-1.7c0.8,1,2,1.7,3.3,1.7s2.6-0.7,3.3-1.7
			c0.8,1,2,1.7,3.3,1.7c2.3,0,4.2-2,4.2-4.4C32.2,13.5,32.2,13.4,32.2,13.3z"/>
	</g>
</g>
<g class="st1">
	<g>
		<path class="st0" d="M28,19.8c-1.2,0-2.4-0.4-3.3-1c-1.9,1.4-4.7,1.4-6.7,0c-1.9,1.4-4.7,1.4-6.7,0c-1,0.7-2.1,1-3.3,1
			c-0.9,0-1.7-0.2-2.4-0.6v9.4c0,1,0.8,1.8,1.8,1.8h7.1v-7.1h7.1v7.1h7.1c1,0,1.8-0.8,1.8-1.8v-9.4C29.7,19.6,28.9,19.8,28,19.8z"/>
	</g>
</g>
</svg>
