<svg id="Layer_1" data-name="Layer 1" xmlns="http://www.w3.org/2000/svg" viewBox="0 0 24 24"><defs><style>.cls-1{fill:none;}.cls-2,.cls-3{fill:#0088A5;fill-rule:evenodd;}.cls-3{isolation:isolate;opacity:0.3;}</style></defs><g id="Stockholm-icons-_-Code-_-Time-schedule" data-name="Stockholm-icons-/-Code-/-Time-schedule"><rect id="bound" class="cls-1" width="24" height="24"/><path id="Path-107" class="cls-2" d="M11,7.5h.09a.51.51,0,0,1,.5.45L12,12.5l3.25,1.86a.5.5,0,0,1,.25.43V15a.38.38,0,0,1-.38.38H15L10.4,14.11a.5.5,0,0,1-.37-.52L10.46,8A.5.5,0,0,1,11,7.5Z"/><path id="Combined-Shape" class="cls-3" d="M7.39,2.83A10.5,10.5,0,1,1,1,12.5a10.64,10.64,0,0,1,.39-2.84l1.92.54A8.8,8.8,0,0,0,3,12.5,8.5,8.5,0,1,0,11.5,4a8.71,8.71,0,0,0-2.75.45L9.94,5.87a.56.56,0,0,1,.12.3.5.5,0,0,1-.48.52L4.72,7H4.57a.51.51,0,0,1-.37-.61L5.33,1.62a.51.51,0,0,1,.87-.2Z"/></g></svg>