<?xml version="1.0" encoding="utf-8"?>
<!-- Generator: Adobe Illustrator 24.3.0, SVG Export Plug-In . SVG Version: 6.00 Build 0)  -->
<svg version="1.1" id="Layer_1" xmlns="http://www.w3.org/2000/svg" xmlns:xlink="http://www.w3.org/1999/xlink" x="0px" y="0px"
	 viewBox="0 0 36 36" style="enable-background:new 0 0 36 36;" xml:space="preserve">
<style type="text/css">
	.st0{fill:none;}
	.st1{opacity:0.3;fill:#0088A5;enable-background:new    ;}
	.st2{fill:#0088A5;}
</style>
<desc>Created with Sketch.</desc>
<g id="Stockholm-icons-_x2F_-General-_x2F_-User_1_">
	<polygon id="Shape_1_" class="st0" points="4.2,3 32.8,3 32.8,31.5 4.2,31.5 	"/>
	<path id="Mask_1_" class="st1" d="M17.7,16.3c-3,0-5.5-2.5-5.5-5.5s2.5-5.5,5.5-5.5s5.5,2.5,5.5,5.5S20.8,16.3,17.7,16.3z"/>
	<path id="Mask-Copy_1_" class="st2" d="M5.4,28.9c0.5-6.5,5.8-9.9,12.3-9.9c6.6,0,12,3.1,12.4,9.9c0,0.3,0,1.1-1,1.1
		c-5.1,0-12.6,0-22.7,0C6.1,30,5.4,29.2,5.4,28.9z"/>
</g>
</svg>
