<svg id="Layer_1" data-name="Layer 1" xmlns="http://www.w3.org/2000/svg" viewBox="0 0 24 24"><defs><style>.cls-1{fill:none;}.cls-2,.cls-3{fill:#0088A5;}.cls-2{isolation:isolate;opacity:0.3;}.cls-3{fill-rule:evenodd;}</style></defs><g id="Stockholm-icons-_-Media-_-Volume-full" data-name="Stockholm-icons-/-Media-/-Volume-full"><rect id="bound" class="cls-1" width="24" height="24"/><path id="Combined-Shape" class="cls-2" d="M16.32,16.15a.76.76,0,0,1-1-.29.75.75,0,0,1,.29-1,3.25,3.25,0,0,0,0-5.67.75.75,0,1,1,.75-1.3,4.76,4.76,0,0,1,0,8.28Zm.47,3.74a.75.75,0,1,1-.65-1.35,7.25,7.25,0,0,0,.07-13,.75.75,0,0,1,.66-1.35,8.75,8.75,0,0,1-.08,15.74Z"/><path id="Combined-Shape-2" data-name="Combined-Shape" class="cls-3" d="M7,16l-3.39-.68a2,2,0,0,1-1.61-2V10.64a2,2,0,0,1,1.61-2L7,8l3.29-3.29a1,1,0,0,1,1.71.7V18.59a1,1,0,0,1-1.71.7Z"/></g></svg>