<svg width="13" height="10" viewBox="0 0 13 10" fill="none" xmlns="http://www.w3.org/2000/svg">
<path fill-rule="evenodd" clip-rule="evenodd" d="M0.666992 5C0.666992 4.81059 0.746001 4.62895 0.886638 4.49502C1.02727 4.36108 1.21802 4.28584 1.41691 4.28584H10.1054L6.8853 1.22068C6.74448 1.08658 6.66537 0.904705 6.66537 0.715059C6.66537 0.525414 6.74448 0.343536 6.8853 0.209436C7.02611 0.0753365 7.2171 0 7.41624 0C7.61538 0 7.80637 0.0753365 7.94718 0.209436L12.4467 4.49438C12.5165 4.56072 12.5719 4.63952 12.6097 4.72629C12.6475 4.81305 12.667 4.90606 12.667 5C12.667 5.09394 12.6475 5.18695 12.6097 5.27371C12.5719 5.36048 12.5165 5.43928 12.4467 5.50562L7.94718 9.79056C7.80637 9.92466 7.61538 10 7.41624 10C7.2171 10 7.02611 9.92466 6.8853 9.79056C6.74448 9.65646 6.66537 9.47459 6.66537 9.28494C6.66537 9.0953 6.74448 8.91342 6.8853 8.77932L10.1054 5.71416H1.41691C1.21802 5.71416 1.02727 5.63892 0.886638 5.50499C0.746001 5.37106 0.666992 5.18941 0.666992 5Z" fill="#23A6F0"/>
</svg>
