<svg width="405" height="168" viewBox="0 0 405 168" fill="none" xmlns="http://www.w3.org/2000/svg">
<path d="M167.433 69V23.5H188.103C193.043 23.5 197.398 24.4533 201.168 26.36C204.938 28.2233 207.884 30.845 210.008 34.225C212.131 37.605 213.193 41.6133 213.193 46.25C213.193 50.8433 212.131 54.8517 210.008 58.275C207.884 61.655 204.938 64.2983 201.168 66.205C197.398 68.0683 193.043 69 188.103 69H167.433ZM177.963 60.355H187.583C190.616 60.355 193.238 59.7917 195.448 58.665C197.701 57.495 199.434 55.8483 200.648 53.725C201.904 51.6017 202.533 49.11 202.533 46.25C202.533 43.3467 201.904 40.855 200.648 38.775C199.434 36.6517 197.701 35.0267 195.448 33.9C193.238 32.73 190.616 32.145 187.583 32.145H177.963V60.355ZM221.134 69V23.5H241.804C246.744 23.5 251.099 24.4533 254.869 26.36C258.639 28.2233 261.585 30.845 263.709 34.225C265.832 37.605 266.894 41.6133 266.894 46.25C266.894 50.8433 265.832 54.8517 263.709 58.275C261.585 61.655 258.639 64.2983 254.869 66.205C251.099 68.0683 246.744 69 241.804 69H221.134ZM231.664 60.355H241.284C244.317 60.355 246.939 59.7917 249.149 58.665C251.402 57.495 253.135 55.8483 254.349 53.725C255.605 51.6017 256.234 49.11 256.234 46.25C256.234 43.3467 255.605 40.855 254.349 38.775C253.135 36.6517 251.402 35.0267 249.149 33.9C246.939 32.73 244.317 32.145 241.284 32.145H231.664V60.355ZM296.935 69.78C293.338 69.78 290.002 69.195 286.925 68.025C283.892 66.855 281.248 65.2083 278.995 63.085C276.785 60.9617 275.052 58.47 273.795 55.61C272.582 52.75 271.975 49.63 271.975 46.25C271.975 42.87 272.582 39.75 273.795 36.89C275.052 34.03 276.807 31.5383 279.06 29.415C281.313 27.2917 283.957 25.645 286.99 24.475C290.023 23.305 293.317 22.72 296.87 22.72C300.467 22.72 303.76 23.305 306.75 24.475C309.783 25.645 312.405 27.2917 314.615 29.415C316.868 31.5383 318.623 34.03 319.88 36.89C321.137 39.7067 321.765 42.8267 321.765 46.25C321.765 49.63 321.137 52.7717 319.88 55.675C318.623 58.535 316.868 61.0267 314.615 63.15C312.405 65.23 309.783 66.855 306.75 68.025C303.76 69.195 300.488 69.78 296.935 69.78ZM296.87 60.81C298.907 60.81 300.77 60.4633 302.46 59.77C304.193 59.0767 305.71 58.08 307.01 56.78C308.31 55.48 309.307 53.9417 310 52.165C310.737 50.3883 311.105 48.4167 311.105 46.25C311.105 44.0833 310.737 42.1117 310 40.335C309.307 38.5583 308.31 37.02 307.01 35.72C305.753 34.42 304.258 33.4233 302.525 32.73C300.792 32.0367 298.907 31.69 296.87 31.69C294.833 31.69 292.948 32.0367 291.215 32.73C289.525 33.4233 288.03 34.42 286.73 35.72C285.43 37.02 284.412 38.5583 283.675 40.335C282.982 42.1117 282.635 44.0833 282.635 46.25C282.635 48.3733 282.982 50.345 283.675 52.165C284.412 53.9417 285.408 55.48 286.665 56.78C287.965 58.08 289.482 59.0767 291.215 59.77C292.948 60.4633 294.833 60.81 296.87 60.81ZM338.469 69V32.08H323.909V23.5H363.559V32.08H348.999V69H338.469ZM383.857 69.78C380.217 69.78 376.729 69.3033 373.392 68.35C370.056 67.3533 367.369 66.075 365.332 64.515L368.907 56.585C370.857 57.9717 373.154 59.12 375.797 60.03C378.484 60.8967 381.192 61.33 383.922 61.33C386.002 61.33 387.671 61.135 388.927 60.745C390.227 60.3117 391.181 59.7267 391.787 58.99C392.394 58.2533 392.697 57.4083 392.697 56.455C392.697 55.2417 392.221 54.2883 391.267 53.595C390.314 52.8583 389.057 52.2733 387.497 51.84C385.937 51.3633 384.204 50.93 382.297 50.54C380.434 50.1067 378.549 49.5867 376.642 48.98C374.779 48.3733 373.067 47.5933 371.507 46.64C369.947 45.6867 368.669 44.43 367.672 42.87C366.719 41.31 366.242 39.3167 366.242 36.89C366.242 34.29 366.936 31.9283 368.322 29.805C369.752 27.6383 371.876 25.9267 374.692 24.67C377.552 23.37 381.127 22.72 385.417 22.72C388.277 22.72 391.094 23.0667 393.867 23.76C396.641 24.41 399.089 25.4067 401.212 26.75L397.962 34.745C395.839 33.5317 393.716 32.6433 391.592 32.08C389.469 31.4733 387.389 31.17 385.352 31.17C383.316 31.17 381.647 31.4083 380.347 31.885C379.047 32.3617 378.116 32.99 377.552 33.77C376.989 34.5067 376.707 35.3733 376.707 36.37C376.707 37.54 377.184 38.4933 378.137 39.23C379.091 39.9233 380.347 40.4867 381.907 40.92C383.467 41.3533 385.179 41.7867 387.042 42.22C388.949 42.6533 390.834 43.1517 392.697 43.715C394.604 44.2783 396.337 45.0367 397.897 45.99C399.457 46.9433 400.714 48.2 401.667 49.76C402.664 51.32 403.162 53.2917 403.162 55.675C403.162 58.2317 402.447 60.5717 401.017 62.695C399.587 64.8183 397.442 66.53 394.582 67.83C391.766 69.13 388.191 69.78 383.857 69.78ZM173.653 136V90.5H182.363L201.733 122.61H197.118L216.163 90.5H224.808L224.938 136H215.058L214.993 105.645H216.813L201.603 131.19H196.858L181.323 105.645H183.533V136H173.653ZM245.418 108.83H267.323V117.02H245.418V108.83ZM246.198 127.55H270.963V136H235.733V90.5H270.118V98.95H246.198V127.55ZM279.342 136V90.5H300.012C304.952 90.5 309.307 91.4533 313.077 93.36C316.847 95.2233 319.793 97.845 321.917 101.225C324.04 104.605 325.102 108.613 325.102 113.25C325.102 117.843 324.04 121.852 321.917 125.275C319.793 128.655 316.847 131.298 313.077 133.205C309.307 135.068 304.952 136 300.012 136H279.342ZM289.872 127.355H299.492C302.525 127.355 305.147 126.792 307.357 125.665C309.61 124.495 311.343 122.848 312.557 120.725C313.813 118.602 314.442 116.11 314.442 113.25C314.442 110.347 313.813 107.855 312.557 105.775C311.343 103.652 309.61 102.027 307.357 100.9C305.147 99.73 302.525 99.145 299.492 99.145H289.872V127.355ZM333.043 136V90.5H343.573V136H333.043ZM348.391 136L368.671 90.5H379.071L399.416 136H388.366L371.726 95.83H375.886L359.181 136H348.391ZM358.531 126.25L361.326 118.255H384.726L387.586 126.25H358.531Z" fill="white"/>
<ellipse cx="30.7765" cy="46.9863" rx="30.7765" ry="32.0076" fill="#FCDF59"/>
<ellipse cx="30.7765" cy="46.9863" rx="30.7765" ry="32.0076" fill="#FCDF59"/>
<ellipse cx="30.7765" cy="119.373" rx="30.7765" ry="32.0076" fill="#C9DD67"/>
<path d="M60.8144 3.4067H17.481C15.101 3.81705 10.3409 5.81958 10.3409 10.5469C10.3409 15.2741 10.3409 107.719 10.3409 153.35V155.566C10.8333 158.602 13.1477 164.676 18.4659 164.676C23.7841 164.676 50.7197 164.676 63.5227 164.676C80.1831 161.475 113.898 147.539 115.473 117.403C117.049 87.2665 116.13 103.205 115.473 114.941L118.182 83.6718L117.443 69.884C112.191 51.9105 98.6818 15.0279 86.6666 11.2855C71.4015 4.39155 61.7992 2.91427 60.8144 3.4067Z" stroke="white" stroke-width="5"/>
<ellipse cx="99.2235" cy="119.373" rx="30.7765" ry="32.0076" fill="#FCDF59"/>
<ellipse cx="98.731" cy="46.9863" rx="30.7765" ry="32.0076" fill="#F69052"/>
</svg>
