<svg version="1.2" xmlns="http://www.w3.org/2000/svg" viewBox="0 0 576 151" width="576" height="151">
	<title>logo (1)-svg</title>
	<style>
		.s0 { fill: #0088a5 } 
		.s1 { fill: #ffffff } 
	</style>
	<g id="Layer_2">
		<g id="Layer_1-2">
			<path id="Layer" class="s0" d="m14.8 29.6c-8.2 0-14.8-6.6-14.8-14.8 0-8.2 6.6-14.8 14.8-14.8 8.2 0 14.8 6.6 14.8 14.8 0 8.2-6.6 14.8-14.8 14.8z"/>
			<path id="Layer" class="s1" d="m56.8 72.1c-8.1 0-14.8-6.7-14.8-14.8 0-8.2 6.7-14.9 14.8-14.9 8.2 0 14.9 6.7 14.9 14.9 0 8.1-6.7 14.8-14.9 14.8z"/>
			<path id="Layer" class="s1" d="m24.6 88.7h18.5v19.6h-38.1v-73.6q2.3 1.1 4.8 1.7 2.5 0.6 5 0.6 2.6 0 5.1-0.6 2.4-0.6 4.7-1.7z"/>
			<path id="Layer" class="s1" d="m107.2 44.1q-1-0.1-2-0.3-1-0.1-2-0.1-1-0.1-2-0.2-1 0-2 0h-12.9c-1.2-2.8-2.9-5.4-4.9-7.7-2-2.3-4.3-4.4-6.9-6-2.6-1.7-5.4-3-8.3-3.9-3-0.8-6-1.3-9.1-1.3h-22.4q1.1-2.3 1.7-4.7 0.5-2.5 0.5-5.1 0-2.5-0.5-5-0.6-2.5-1.7-4.8h22.4c5.7 0 11.4 1 16.8 2.8 5.4 1.9 10.5 4.6 15 8.1 4.5 3.6 8.4 7.8 11.5 12.6 3.1 4.8 5.4 10.1 6.8 15.6z"/>
			<path id="Layer" class="s1" d="m99.2 71q0.9 0 1.8 0.1 0.9 0 1.8 0.2 1 0.1 1.9 0.3 0.9 0.1 1.8 0.4c-1.3 4.1-3.1 8.1-5.4 11.8-2.3 3.7-5 7.1-8.2 10.1-3.1 3-6.6 5.6-10.3 7.7-3.8 2.2-7.8 3.8-12 5v-20.9q2.4-1.1 4.6-2.7 2.3-1.5 4.2-3.4 1.9-1.9 3.5-4 1.6-2.2 2.8-4.6z"/>
			<path id="Layer" class="s0" d="m150.8 98.8c0 6.8-1.3 13.5-3.9 19.8-2.6 6.2-6.4 11.9-11.2 16.7-4.8 4.8-10.5 8.6-16.8 11.2-6.2 2.6-13 4-19.7 4h-52.2v-73.7q0.3 0.2 0.6 0.3 0.3 0.1 0.6 0.3 0.2 0.1 0.5 0.2 0.3 0.1 0.6 0.2 2.1 0.8 4.3 1.1 2.2 0.3 4.5 0.2 2.2-0.1 4.4-0.7 2.1-0.6 4.1-1.6v54h32.6c7.4 0.1 14.6-2.5 20.4-7.2 5.7-4.7 9.6-11.3 11.1-18.6 1.4-7.3 0.2-14.9-3.3-21.4-3.6-6.6-9.3-11.7-16.2-14.4q-0.9-0.4-1.8-0.7-1-0.3-1.9-0.6-1-0.3-2.1-0.5-1-0.2-2-0.3-1.1-0.2-2.1-0.2-1.1-0.1-2.1-0.1h-22.5q1.1-2.1 1.6-4.5 0.6-2.3 0.7-4.7 0-2.4-0.4-4.7-0.5-2.4-1.4-4.6-0.2-0.6-0.5-1.1h22.5q1.1 0 2.2 0 1.1 0.1 2.2 0.2 1.2 0.1 2.3 0.2 1.1 0.2 2.2 0.4 1 0.1 2 0.4c0.6 0.1 1.4 0.3 2 0.4 5.5 1.5 10.7 3.8 15.5 6.9 4.7 3.2 8.9 7 12.4 11.5 3.4 4.5 6.2 9.6 8 14.9 1.8 5.4 2.8 11 2.8 16.7z"/>
			<path id="Layer" fill-rule="evenodd" class="s1" d="m194.1 83.3v-73.6h33.4q2.8-0.1 5.5 0.2 2.7 0.3 5.4 0.8 2.6 0.6 5.2 1.5 2.6 0.9 5.1 2.1 2.2 1 4.2 2.4 2 1.3 3.8 3 1.9 1.6 3.4 3.5 1.6 1.8 2.9 3.9 1.3 2.2 2.3 4.5 1 2.4 1.7 4.8 0.6 2.5 0.9 5 0.3 2.6 0.2 5.1 0.1 2.6-0.2 5.1-0.3 2.5-0.9 5-0.7 2.4-1.7 4.8-1 2.3-2.3 4.5-1.3 2.1-2.9 4-1.5 1.8-3.3 3.5-1.9 1.6-3.9 2.9-2 1.4-4.2 2.5-2.5 1.1-5 2-2.6 0.9-5.3 1.5-2.7 0.6-5.4 0.8-2.7 0.3-5.4 0.2zm17.1-13.8h15.5q1.6 0 3.3-0.2 1.6-0.1 3.2-0.5 1.6-0.3 3.2-0.9 1.6-0.5 3-1.2 1.4-0.7 2.6-1.5 1.2-0.9 2.2-1.9 1.1-1 2-2.2 0.9-1.1 1.6-2.4 0.8-1.4 1.4-2.9 0.6-1.5 1-3 0.3-1.5 0.5-3.1 0.2-1.6 0.1-3.2 0.1-1.6-0.1-3.2-0.2-1.5-0.5-3.1-0.4-1.5-1-3-0.6-1.5-1.4-2.9-0.7-1.2-1.6-2.4-0.9-1.1-2-2.2-1-1-2.2-1.8-1.2-0.9-2.6-1.5-1.4-0.7-3-1.3-1.6-0.5-3.2-0.9-1.6-0.3-3.2-0.5-1.7-0.1-3.3-0.1h-15.5z"/>
			<path id="Layer" fill-rule="evenodd" class="s1" d="m280.9 83.3v-73.6h33.5q2.7-0.1 5.4 0.2 2.7 0.3 5.4 0.8 2.7 0.6 5.3 1.5 2.5 0.9 5 2.1 2.2 1 4.2 2.4 2 1.4 3.9 3 1.8 1.6 3.3 3.5 1.6 1.8 2.9 3.9 1.3 2.2 2.3 4.5 1 2.4 1.7 4.8 0.6 2.5 1 5 0.3 2.6 0.2 5.1 0.1 2.6-0.2 5.1-0.3 2.5-1 5-0.7 2.5-1.7 4.8-1 2.3-2.3 4.5-1.3 2.1-2.9 4-1.5 1.8-3.3 3.5-1.9 1.6-3.9 2.9-2 1.4-4.2 2.5-2.5 1.1-5 2-2.6 0.9-5.3 1.5-2.7 0.6-5.4 0.8-2.7 0.3-5.4 0.2zm17.1-13.8h15.5q1.6 0 3.3-0.2 1.6-0.1 3.2-0.5 1.6-0.3 3.2-0.9 1.6-0.5 3-1.2 1.4-0.7 2.6-1.5 1.2-0.9 2.2-1.9 1.1-1 2-2.2 0.9-1.1 1.7-2.4 0.7-1.4 1.3-2.9 0.6-1.5 1-3 0.3-1.5 0.5-3.1 0.2-1.6 0.2-3.2 0-1.6-0.2-3.2-0.1-1.5-0.5-3.1-0.4-1.5-1-3-0.6-1.5-1.3-2.9-0.8-1.2-1.7-2.4-0.9-1.1-2-2.2-1-1-2.2-1.8-1.2-0.9-2.6-1.5-1.4-0.7-3-1.3-1.6-0.5-3.2-0.9-1.6-0.3-3.2-0.5-1.7-0.1-3.3-0.1h-15.5z"/>
			<path id="Layer" fill-rule="evenodd" class="s1" d="m403.4 84.6q-2 0-4.1-0.2-2-0.1-4-0.5-2-0.4-4-0.9-2-0.5-3.9-1.3-1.7-0.6-3.5-1.5-1.7-0.8-3.3-1.8-1.6-1.1-3.1-2.2-1.5-1.2-2.9-2.5-1.4-1.2-2.6-2.7-1.2-1.4-2.3-2.9-1-1.5-1.9-3.1-0.9-1.7-1.7-3.4-0.7-1.8-1.3-3.6-0.6-1.9-0.9-3.8-0.4-1.9-0.6-3.8-0.2-2-0.2-3.9 0-2 0.2-3.9 0.2-1.9 0.6-3.9 0.3-1.9 0.9-3.7 0.6-1.9 1.3-3.7 0.8-1.7 1.7-3.3 0.9-1.6 2-3.1 1-1.5 2.2-2.9 1.3-1.4 2.6-2.7 1.4-1.3 2.9-2.5 1.5-1.1 3.1-2.1 1.6-1 3.3-1.9 1.7-0.8 3.5-1.5 1.9-0.7 3.9-1.3 1.9-0.5 3.9-0.9 2.1-0.3 4.1-0.5 2-0.2 4.1-0.1 2-0.1 4.1 0.1 2 0.2 4 0.5 2 0.4 4 0.9 2 0.5 3.9 1.3 1.8 0.6 3.5 1.4 1.7 0.9 3.3 1.9 1.6 1 3.1 2.1 1.5 1.2 2.9 2.5 1.3 1.3 2.5 2.7 1.2 1.4 2.3 2.9 1.1 1.5 2 3.1 0.9 1.7 1.6 3.4 0.8 1.8 1.4 3.7 0.5 1.8 0.9 3.7 0.4 2 0.6 3.9 0.1 2 0.1 3.9 0 2-0.1 3.9-0.2 2-0.6 3.9-0.4 1.9-1 3.8-0.5 1.8-1.3 3.6-0.7 1.7-1.6 3.4-0.9 1.6-2 3.1-1 1.6-2.3 3-1.2 1.4-2.5 2.7-1.4 1.3-2.9 2.4-1.5 1.2-3.1 2.2-1.6 1-3.3 1.8-1.7 0.8-3.5 1.5-1.9 0.7-3.9 1.2-2 0.6-4 0.9-2 0.4-4 0.5-2 0.2-4.1 0.2zm0-14.4q1.2 0 2.4-0.1 1.1-0.1 2.3-0.4 1.1-0.2 2.2-0.5 1.1-0.3 2.2-0.8 1.1-0.4 2-0.9 1-0.6 1.9-1.2 1-0.6 1.8-1.4 0.9-0.7 1.6-1.5 0.8-0.8 1.5-1.6 0.7-0.9 1.4-1.9 0.6-0.9 1.1-1.9 0.5-1 0.9-2 0.5-1.2 0.8-2.3 0.3-1.2 0.6-2.4 0.2-1.2 0.3-2.4 0.1-1.2 0.1-2.4 0-1.3-0.1-2.5-0.1-1.2-0.3-2.4-0.3-1.2-0.6-2.4-0.3-1.1-0.8-2.3-0.4-1-0.9-2-0.5-1-1.2-1.9-0.6-1-1.3-1.9-0.7-0.8-1.5-1.6-0.7-0.8-1.6-1.5-0.8-0.7-1.8-1.4-0.9-0.6-1.9-1.1-0.9-0.5-2-1-1-0.4-2.2-0.7-1.1-0.4-2.2-0.6-1.2-0.2-2.3-0.3-1.2-0.1-2.4-0.1-1.1 0-2.3 0.1-1.2 0.1-2.3 0.3-1.2 0.2-2.3 0.6-1.1 0.3-2.2 0.7-1 0.4-2 1-1 0.5-1.9 1.1-0.9 0.6-1.8 1.4-0.8 0.7-1.6 1.5-0.8 0.8-1.5 1.7-0.7 0.8-1.3 1.8-0.6 0.9-1.1 1.9-0.5 1-1 2-0.4 1.2-0.7 2.3-0.4 1.2-0.6 2.4-0.2 1.2-0.3 2.4-0.1 1.2-0.1 2.5 0 1.2 0.1 2.4 0.1 1.2 0.3 2.4 0.2 1.2 0.6 2.4 0.3 1.1 0.7 2.3 0.5 1 1 2 0.5 1 1.1 2 0.6 0.9 1.3 1.8 0.7 0.9 1.5 1.7 0.8 0.8 1.6 1.5 0.9 0.7 1.8 1.4 0.9 0.6 1.9 1.1 1 0.6 2 1 1.1 0.4 2.2 0.7 1.1 0.4 2.3 0.6 1.1 0.2 2.3 0.3 1.2 0.1 2.3 0.1z"/>
			<path id="Layer" class="s1" d="m470.7 83.3v-59.7h-23.5v-13.9h64.1v13.9h-23.5v59.7z"/>
			<path id="Layer" class="s1" d="m544.2 84.6q-2.1 0-4.3-0.2-2.1-0.1-4.3-0.4-2.1-0.3-4.2-0.8-2.1-0.4-4.2-1-1.7-0.5-3.5-1.1-1.7-0.6-3.3-1.4-1.7-0.7-3.2-1.7-1.6-0.9-3.1-2l5.8-12.8q1.3 0.9 2.6 1.7 1.4 0.8 2.8 1.5 1.4 0.7 2.8 1.3 1.5 0.6 3 1 1.5 0.6 3.2 1 1.6 0.4 3.3 0.7 1.6 0.2 3.3 0.4 1.6 0.1 3.3 0.1 1.1 0.1 2.1 0 1 0 2-0.2 1.1-0.1 2.1-0.3 1-0.2 2-0.5 0.6-0.2 1.3-0.5 0.6-0.3 1.2-0.6 0.6-0.4 1.1-0.8 0.5-0.4 1-0.9 0.4-0.5 0.6-0.9 0.3-0.5 0.5-1 0.2-0.5 0.3-1.1 0.1-0.5 0.1-1 0-0.7-0.2-1.4-0.1-0.7-0.4-1.3-0.3-0.6-0.7-1.1-0.5-0.5-1-0.9-0.7-0.5-1.5-0.9-0.7-0.5-1.5-0.8-0.8-0.4-1.6-0.7-0.8-0.3-1.6-0.5-3.8-1.1-8.4-2.1-4.5-1-9.1-2.4-1.1-0.4-2.1-0.8-1.1-0.4-2.2-0.9-1-0.4-2.1-1-1-0.5-2-1.1-0.9-0.6-1.8-1.3-0.8-0.7-1.6-1.4-0.8-0.8-1.4-1.7-0.7-0.9-1.3-1.8-0.6-1.1-1-2.3-0.5-1.2-0.7-2.4-0.3-1.2-0.5-2.4-0.1-1.3 0-2.5 0-1.6 0.2-3.1 0.2-1.5 0.6-2.9 0.4-1.5 1.1-2.9 0.6-1.4 1.4-2.7 1-1.3 2.1-2.6 1.2-1.2 2.5-2.3 1.3-1 2.7-1.9 1.4-0.8 3-1.5 6.9-3.1 17.3-3.1 1.7 0 3.4 0.1 1.8 0.2 3.5 0.4 1.7 0.2 3.4 0.5 1.7 0.3 3.4 0.7 1.6 0.4 3.1 0.9 1.5 0.5 3 1.1 1.5 0.6 2.9 1.3 1.4 0.7 2.8 1.5l-5.4 12.9q-1.2-0.7-2.4-1.4-1.3-0.6-2.5-1.1-1.3-0.5-2.6-1-1.3-0.4-2.7-0.8-1.2-0.3-2.5-0.6-1.2-0.3-2.5-0.4-1.2-0.2-2.5-0.3-1.3-0.1-2.6-0.1-1-0.1-2 0-1 0.1-2.1 0.2-1 0.1-2 0.4-1 0.2-2 0.5-0.6 0.2-1.2 0.5-0.6 0.3-1.2 0.7-0.6 0.3-1.1 0.8-0.5 0.5-0.9 1-0.4 0.4-0.6 0.9-0.3 0.5-0.5 1.1-0.2 0.5-0.3 1.1-0.1 0.5 0 1.1-0.1 0.7 0.1 1.3 0.1 0.7 0.4 1.3 0.3 0.7 0.8 1.2 0.4 0.5 1 0.9 0.7 0.5 1.4 1 0.7 0.4 1.5 0.7 0.8 0.4 1.6 0.7 0.8 0.2 1.6 0.4 3.8 1 8.4 2 1.2 0.3 2.3 0.6 1.2 0.2 2.3 0.6 1.2 0.3 2.3 0.6 1.1 0.3 2.2 0.7 1.1 0.3 2.2 0.8 1.1 0.4 2.1 0.8 1.1 0.5 2.1 1 1 0.5 2 1.1 2 1.2 3.6 2.9 1.7 1.7 2.8 3.7 1.1 2.1 1.7 4.4 0.5 2.3 0.4 4.6 0 1.6-0.2 3-0.2 1.5-0.7 3-0.4 1.4-1.1 2.8-0.6 1.3-1.4 2.6-1 1.4-2.2 2.6-1.1 1.2-2.4 2.3-1.3 1-2.8 1.9-1.4 0.9-3 1.5-7 3.2-17.4 3.2z"/>
			<path id="Layer" class="s0" d="m197.5 149.3v-42.9h2.6l19.9 34.4h-1.4l19.9-34.4h2.6v42.9h-3l-0.1-38.2h0.9l-18.8 32.5h-1.6l-18.8-32.5h0.9v38.2z"/>
			<path id="Layer" fill-rule="evenodd" class="s0" d="m302.1 146.5h26.5v2.8h-29.6v-42.9h28.7v2.8h-25.6v16.9h-0.4v2.8h0.4zm22.9-17.5v-2.8h-22.9v2.8z"/>
			<path id="Layer" fill-rule="evenodd" class="s0" d="m382.9 149.3v-42.9h17q1.5 0 3 0.1 1.6 0.2 3.1 0.5 1.5 0.4 3 0.9 1.4 0.6 2.8 1.3 1.2 0.6 2.4 1.4 1.1 0.8 2.1 1.8 1 1 1.9 2.1 0.9 1.1 1.6 2.3 1.4 2.5 2.1 5.3 0.7 2.8 0.8 5.7-0.1 3-0.8 5.8-0.7 2.8-2.1 5.3-0.7 1.2-1.6 2.3-0.9 1.1-1.9 2.1-1 1-2.1 1.8-1.2 0.8-2.4 1.4-1.4 0.8-2.8 1.3-1.5 0.5-3 0.9-1.5 0.3-3.1 0.5-1.5 0.1-3 0.1zm3.1-2.8h13.6q1.3 0 2.7-0.1 1.4-0.2 2.7-0.5 1.3-0.3 2.6-0.7 1.3-0.5 2.5-1.1 1.1-0.6 2.1-1.3 1-0.7 1.8-1.5 0.9-0.9 1.7-1.8 0.7-1 1.3-2 1.2-2.2 1.9-4.7 0.6-2.4 0.6-5 0-2.5-0.6-4.9-0.7-2.5-1.9-4.7-0.6-1-1.3-2-0.8-0.9-1.7-1.8-0.8-0.8-1.8-1.5-1-0.7-2.1-1.3-1.2-0.6-2.5-1.1-1.3-0.4-2.6-0.7-1.3-0.3-2.7-0.5-1.4-0.1-2.7-0.1h-13.6z"/>
			<path id="Layer" class="s0" d="m476.4 149.3v-42.9h3.1v42.9z"/>
			<path id="Layer" fill-rule="evenodd" class="s0" d="m530.1 149.3l19.8-42.9h3.1l19.7 42.9h-3.3l-5.5-12.1h1.1l-1-2.6h-1.3l-11.3-24.7-11.2 24.7h-1.8l-1 2.6h1.6l-5.5 12.1zm21.3-39.4l0.7-1.5h-1.4zm12.5 27.3l-1.2-2.6h-22.5l-1.2 2.6z"/>
		</g>
	</g>
</svg>