<svg xmlns="http://www.w3.org/2000/svg" viewBox="0 0 809.19 807.34"><defs><style>.cls-1{fill:#0088a5;}.cls-2{fill:#00495c;}</style></defs><title>icon</title><g id="Layer_2" data-name="Layer 2"><g id="Layer_1-2" data-name="Layer 1"><circle class="cls-1" cx="79.48" cy="79.48" r="79.48"/><circle class="cls-2" cx="305" cy="307.19" r="79.48"/><path class="cls-2" d="M132.14,475.72h99.13V581H26.82V186a118.79,118.79,0,0,0,105.32,0Z"/><path class="cls-2" d="M575.41,236.61a297.69,297.69,0,0,0-43.32-3.15H463.24c-26.95-59.69-87-101.32-156.67-101.32H186a118.88,118.88,0,0,0,0-105.32h120.6C436.15,26.82,545.26,116.24,575.41,236.61Z"/><path class="cls-2" d="M532.09,380.91a150,150,0,0,1,39.14,5.17A278.18,278.18,0,0,1,378.72,571.5V459.82a172.9,172.9,0,0,0,81.41-78.91Z"/><path class="cls-1" d="M809.19,530.23c0,152.79-124.31,277.11-277.1,277.11H252.34V412.28a118.86,118.86,0,0,0,105.31,0V702H532.09c94.72,0,171.79-77.06,171.79-171.79,0-71.85-44.35-133.54-107.1-159.14-3.26-1.35-6.59-2.58-9.94-3.71s-6.7-2.14-10.11-3.06a171.69,171.69,0,0,0-44.64-5.88H411.49a118.91,118.91,0,0,0,2.77-99.31c-.86-2-1.79-4-2.77-6h120.6A276,276,0,0,1,580,257.28c3.7.63,7.37,1.35,11,2.13s7.37,1.69,11,2.64C721.06,293.12,809.19,401.58,809.19,530.23Z"/></g></g></svg>