<svg xmlns="http://www.w3.org/2000/svg" viewBox="0 0 575.35 150.46"><defs><style>.cls-1{fill:#0088a5;}.cls-2{fill:#00495c;}</style></defs><title>Asset 1</title><g id="Layer_2" data-name="Layer 2"><g id="Layer_1-2" data-name="Layer 1"><circle class="cls-1" cx="14.81" cy="14.81" r="14.81"/><circle class="cls-2" cx="56.84" cy="57.25" r="14.81"/><path class="cls-2" d="M24.63,94.73H43.1v19.63H5V40.73a22.09,22.09,0,0,0,19.63,0Z" transform="translate(0 -6.07)"/><path class="cls-2" d="M107.23,50.17a55,55,0,0,0-8.07-.59H86.33A32.06,32.06,0,0,0,57.13,30.7H34.66a22.18,22.18,0,0,0,0-19.63H57.13A51.73,51.73,0,0,1,107.23,50.17Z" transform="translate(0 -6.07)"/><path class="cls-2" d="M99.16,77.06a28.37,28.37,0,0,1,7.3,1,51.85,51.85,0,0,1-35.88,34.56V91.77A32.26,32.26,0,0,0,85.75,77.06Z" transform="translate(0 -6.07)"/><path class="cls-1" d="M150.8,104.89a51.7,51.7,0,0,1-51.64,51.64H47V82.91a22.94,22.94,0,0,0,2.33,1,22.16,22.16,0,0,0,17.29-1v54H99.16a32,32,0,0,0,12.06-61.68c-.61-.25-1.23-.48-1.85-.69s-1.25-.4-1.89-.57a32.12,32.12,0,0,0-8.32-1.1H76.69a22.13,22.13,0,0,0,.51-18.5c-.16-.38-.33-.75-.51-1.12H99.16a51.49,51.49,0,0,1,8.93.77c.69.12,1.37.25,2,.4s1.37.31,2,.49A51.73,51.73,0,0,1,150.8,104.89Z" transform="translate(0 -6.07)"/><path class="cls-2" d="M194.09,89.37V15.77h33.44a46.77,46.77,0,0,1,21.13,4.57A34.85,34.85,0,0,1,263,33.17a35.94,35.94,0,0,1,5.15,19.4A35.91,35.91,0,0,1,263,72a34.78,34.78,0,0,1-14.3,12.83,46.64,46.64,0,0,1-21.13,4.57Zm17.14-13.88h15.45a27.56,27.56,0,0,0,12.78-2.78,20.13,20.13,0,0,0,8.41-8,23.9,23.9,0,0,0,3-12.15,23.79,23.79,0,0,0-3-12.19,20.14,20.14,0,0,0-8.41-7.94,27.56,27.56,0,0,0-12.78-2.79H211.23Z" transform="translate(0 -6.07)"/><path class="cls-2" d="M280.94,89.37V15.77h33.44a46.77,46.77,0,0,1,21.13,4.57,34.85,34.85,0,0,1,14.3,12.83A35.94,35.94,0,0,1,355,52.57,35.91,35.91,0,0,1,349.81,72a34.78,34.78,0,0,1-14.3,12.83,46.64,46.64,0,0,1-21.13,4.57Zm17.14-13.88h15.45a27.56,27.56,0,0,0,12.78-2.78,20.13,20.13,0,0,0,8.41-8,23.9,23.9,0,0,0,3-12.15,23.79,23.79,0,0,0-3-12.19,20.14,20.14,0,0,0-8.41-7.94,27.56,27.56,0,0,0-12.78-2.79H298.08Z" transform="translate(0 -6.07)"/><path class="cls-2" d="M403.43,90.64a44.09,44.09,0,0,1-16-2.84,39.12,39.12,0,0,1-12.83-8,36.24,36.24,0,0,1-8.46-12.1,37.71,37.71,0,0,1-3-15.14,37.65,37.65,0,0,1,3-15.19,36.31,36.31,0,0,1,8.46-12,39,39,0,0,1,12.78-8,43.93,43.93,0,0,1,16-2.84,44.62,44.62,0,0,1,16,2.79,38.2,38.2,0,0,1,12.77,7.93,36.13,36.13,0,0,1,8.47,12.1,38.16,38.16,0,0,1,3,15.24,38.35,38.35,0,0,1-3,15.2,35.89,35.89,0,0,1-8.47,12.14,38.22,38.22,0,0,1-12.77,7.94A44.62,44.62,0,0,1,403.43,90.64Zm0-14.41a23.49,23.49,0,0,0,9.1-1.73,22.21,22.21,0,0,0,7.31-5,22.6,22.6,0,0,0,4.88-7.46,25,25,0,0,0,1.74-9.52,24.94,24.94,0,0,0-1.74-9.51,22.75,22.75,0,0,0-4.88-7.47,22.18,22.18,0,0,0-7.31-4.94,23.31,23.31,0,0,0-9.1-1.74,23.74,23.74,0,0,0-9.15,1.74,21.35,21.35,0,0,0-7.3,4.94,23.29,23.29,0,0,0-4.84,7.47,24.94,24.94,0,0,0-1.73,9.51,25,25,0,0,0,1.73,9.52A23.14,23.14,0,0,0,387,69.55a21.37,21.37,0,0,0,7.3,5A23.93,23.93,0,0,0,403.43,76.23Z" transform="translate(0 -6.07)"/><path class="cls-2" d="M470.73,89.37V29.65H447.17V15.77h64.14V29.65H487.76V89.37Z" transform="translate(0 -6.07)"/><path class="cls-2" d="M544.22,90.64a60.57,60.57,0,0,1-17-2.37,39.78,39.78,0,0,1-13.09-6.15l5.79-12.83a40.11,40.11,0,0,0,11.14,5.52A41.58,41.58,0,0,0,544.22,77a25.64,25.64,0,0,0,8.15-1.06A10.07,10.07,0,0,0,557,73.13a6.09,6.09,0,0,0,1.47-4,5.56,5.56,0,0,0-2.31-4.68A19.13,19.13,0,0,0,550,61.56q-3.84-1.1-8.36-2.1c-3-.67-6.05-1.47-9.1-2.42a37.11,37.11,0,0,1-8.41-3.78,17.86,17.86,0,0,1-6.1-6.21,18.66,18.66,0,0,1-2.26-9.62,20.72,20.72,0,0,1,3.37-11.51,23,23,0,0,1,10.25-8.31q6.89-3.11,17.29-3.1a57,57,0,0,1,13.73,1.68A40.57,40.57,0,0,1,572.19,21l-5.36,12.83a42.14,42.14,0,0,0-10.2-4.26,38.52,38.52,0,0,0-10.09-1.42,24.51,24.51,0,0,0-8.1,1.1,9.48,9.48,0,0,0-4.47,3,6.87,6.87,0,0,0-1.42,4.2,5.68,5.68,0,0,0,2.32,4.74A16.85,16.85,0,0,0,541,44q3.78,1,8.41,2a94.16,94.16,0,0,1,9.14,2.47,40.83,40.83,0,0,1,8.31,3.73,17.15,17.15,0,0,1,8.52,15.62,20.06,20.06,0,0,1-3.42,11.35,23.77,23.77,0,0,1-10.36,8.31Q554.64,90.63,544.22,90.64Z" transform="translate(0 -6.07)"/><path class="cls-1" d="M197.5,155.37V112.48h2.64l19.91,34.37h-1.41l19.85-34.37h2.58l.06,42.89h-3.07L238,117.19h.86l-18.81,32.48h-1.53l-18.87-32.48h.92v38.18Z" transform="translate(0 -6.07)"/><path class="cls-1" d="M302.09,152.55h26.47v2.82H299V112.48h28.67v2.81H302.09Zm-.36-20.34H325V135H301.73Z" transform="translate(0 -6.07)"/><path class="cls-1" d="M382.85,155.37V112.48h17a24.89,24.89,0,0,1,11.95,2.75,20.07,20.07,0,0,1,8,7.6,23,23,0,0,1,0,22.18,20.07,20.07,0,0,1-8,7.6,24.89,24.89,0,0,1-11.95,2.76Zm3.13-2.82h13.6a22.13,22.13,0,0,0,10.54-2.39,17.25,17.25,0,0,0,6.92-6.59,20.23,20.23,0,0,0,0-19.3,17.25,17.25,0,0,0-6.92-6.59,22.13,22.13,0,0,0-10.54-2.39H386Z" transform="translate(0 -6.07)"/><path class="cls-1" d="M476.35,155.37V112.48h3.13v42.89Z" transform="translate(0 -6.07)"/><path class="cls-1" d="M530.15,155.37l19.73-42.89H553l19.73,42.89h-3.37l-18.62-40.93h1.35l-18.57,40.93Zm7.23-12.07,1-2.64h25.67l1,2.64Z" transform="translate(0 -6.07)"/></g></g></svg>