<svg width="12" height="11" viewBox="0 0 12 11" fill="none" xmlns="http://www.w3.org/2000/svg">
<path fill-rule="evenodd" clip-rule="evenodd" d="M0 5.75C0 5.56059 0.079009 5.37895 0.219646 5.24502C0.360282 5.11108 0.551026 5.03584 0.749916 5.03584H9.43845L6.21831 1.97068C6.07749 1.83658 5.99838 1.6547 5.99838 1.46506C5.99838 1.27541 6.07749 1.09354 6.21831 0.959436C6.35912 0.825337 6.5501 0.75 6.74925 0.75C6.94839 0.75 7.13937 0.825337 7.28019 0.959436L11.7797 5.24438C11.8495 5.31072 11.9049 5.38952 11.9427 5.47629C11.9805 5.56305 12 5.65606 12 5.75C12 5.84394 11.9805 5.93695 11.9427 6.02371C11.9049 6.11048 11.8495 6.18928 11.7797 6.25562L7.28019 10.5406C7.13937 10.6747 6.94839 10.75 6.74925 10.75C6.5501 10.75 6.35912 10.6747 6.21831 10.5406C6.07749 10.4065 5.99838 10.2246 5.99838 10.0349C5.99838 9.8453 6.07749 9.66342 6.21831 9.52932L9.43845 6.46416H0.749916C0.551026 6.46416 0.360282 6.38892 0.219646 6.25499C0.079009 6.12106 0 5.93941 0 5.75Z" fill="#23A6F0"/>
</svg>
