<svg width="138" height="32" viewBox="0 0 138 32" fill="none" xmlns="http://www.w3.org/2000/svg">
<path d="M39.8643 5.16128C39.8643 3.69438 41.0079 2.55347 42.4783 2.55347C44.0032 2.55347 45.1468 3.64005 45.1468 5.16128C45.1468 6.6825 44.0032 7.76909 42.4783 7.76909C40.9534 7.76909 39.8643 6.6825 39.8643 5.16128ZM40.3544 9.67061H44.6022V24.4482H40.3544V9.67061Z" fill="#23a6f0"/>
<path d="M47.1074 17.0594C47.1074 12.6587 50.5384 9.29028 55.1129 9.29028C58.1082 9.29028 60.6133 10.7028 61.9748 12.9847L58.2716 15.2122C57.6725 14.1256 56.4744 13.365 55.1129 13.365C53.0435 13.365 51.4642 14.9405 51.4642 17.0051C51.4642 19.0696 52.989 20.6451 55.1129 20.6451C56.5289 20.6451 57.6725 19.9388 58.2716 18.7979L61.9748 21.0254C60.6133 23.3073 58.1082 24.7198 55.1129 24.7198C50.5384 24.7742 47.1074 21.4601 47.1074 17.0594Z" fill="#23a6f0"/>
<path d="M78.4758 18.4176H67.4205C67.9651 20.0475 69.3811 21.0798 71.2327 21.0798C72.9209 21.0798 74.2824 20.3191 74.9359 19.4499L77.7678 21.8947C76.1885 23.6876 73.7923 24.7742 71.0693 24.7742C66.3314 24.7742 62.7915 21.4057 62.7915 16.9507C62.7915 12.6044 66.168 9.29028 70.6881 9.29028C75.1538 9.29028 78.4758 12.6044 78.4758 17.1137C78.5847 17.494 78.5303 18.0373 78.4758 18.4176ZM67.4205 15.6468H74.0646C73.5745 14.0169 72.3219 12.9847 70.7426 12.9847C69.1088 12.9304 67.8562 14.0169 67.4205 15.6468Z" fill="#23a6f0"/>
<path d="M96.8833 17.0594C96.8833 21.4601 93.8336 24.8285 89.7491 24.8285C87.952 24.8285 86.4271 24.1765 85.2835 22.9813V29.9898H81.0356V9.67059H85.2835V11.1375C86.4271 9.99656 87.952 9.29028 89.7491 9.29028C93.8336 9.29028 96.8833 12.6587 96.8833 17.0594ZM92.5266 17.0594C92.5266 14.9949 91.0017 13.4193 88.8778 13.4193C86.8083 13.4193 85.229 14.9949 85.229 17.0594C85.229 19.1239 86.7539 20.6995 88.8778 20.6995C91.0017 20.6995 92.5266 19.1239 92.5266 17.0594Z" fill="#23a6f0"/>
<path d="M98.9526 5.16128C98.9526 3.69438 100.096 2.55347 101.567 2.55347C103.092 2.55347 104.235 3.64005 104.235 5.16128C104.235 6.6825 103.092 7.76909 101.567 7.76909C100.096 7.76909 98.9526 6.6825 98.9526 5.16128ZM99.4428 9.67061H103.691V24.4482H99.4428V9.67061Z" fill="#23a6f0"/>
<path d="M106.196 17.0594C106.196 12.6587 109.627 9.29028 114.201 9.29028C117.197 9.29028 119.702 10.7028 121.063 12.9847L117.36 15.2122C116.761 14.1256 115.563 13.365 114.201 13.365C112.132 13.365 110.553 14.9405 110.553 17.0051C110.553 19.0696 112.077 20.6451 114.201 20.6451C115.617 20.6451 116.761 19.9388 117.36 18.7979L121.063 21.0254C119.702 23.3073 117.197 24.7198 114.201 24.7198C109.627 24.7742 106.196 21.4601 106.196 17.0594Z" fill="#23a6f0"/>
<path d="M128.524 19.6672L127.435 20.8624V24.4482H123.187V3.53137H127.435V15.1579L132.336 9.67059H137.782L131.519 16.4618L138 24.4482H132.391L128.524 19.6672Z" fill="#23a6f0"/>
<path d="M16.011 31.9457C24.8537 31.9457 32.0221 24.7944 32.0221 15.9728C32.0221 7.15128 24.8537 0 16.011 0C7.16839 0 0 7.15128 0 15.9728C0 24.7944 7.16839 31.9457 16.011 31.9457Z" fill="#BDEBFF"/>
<path d="M23.1997 11.9525L22.2738 11.0289C22.0016 10.7573 21.5114 10.7573 21.1847 11.0289L8.82239 23.416C8.55009 23.6877 8.55009 24.1766 8.82239 24.5026L9.7482 25.4262C10.0205 25.6979 10.5106 25.6979 10.8374 25.4262L23.1997 13.0391C23.472 12.7131 23.472 12.2242 23.1997 11.9525Z" fill="#ACDBEA"/>
<path d="M10.2926 26.2411C9.91133 26.2411 9.58458 26.0781 9.31228 25.8608L8.38647 24.9372C7.84188 24.3939 7.84188 23.5789 8.38647 23.0357L20.7487 10.6486C21.2933 10.1053 22.1647 10.1053 22.6548 10.6486L23.5806 11.5722C23.8529 11.8438 23.9618 12.1698 23.9618 12.5501C23.9618 12.9304 23.7985 13.2564 23.5806 13.528L11.2184 25.8065C11.0005 26.0781 10.6738 26.2411 10.2926 26.2411ZM21.729 11.4092C21.6746 11.4092 21.6746 11.4092 21.6201 11.4635L9.25782 23.8506C9.20336 23.9049 9.20336 24.0136 9.25782 24.0679L10.1836 24.9915C10.2381 25.0458 10.2381 25.0458 10.2926 25.0458C10.347 25.0458 10.347 25.0458 10.4015 24.9915L22.7637 12.6044C22.8182 12.5501 22.8182 12.5501 22.8182 12.4958C22.8182 12.4414 22.8182 12.4414 22.7637 12.3871L21.8379 11.4635C21.7835 11.4092 21.729 11.4092 21.729 11.4092Z" fill="#23a6f0"/>
<path d="M27.8832 13.9626C24.5067 9.1816 21.2392 7.22574 18.8974 6.4108C18.0261 6.13915 17.4815 7.22574 18.1895 7.76904C22.1105 10.6485 24.779 14.1256 25.8682 15.7555C26.1405 16.1901 26.794 16.1901 27.1208 15.8098L27.8832 14.8862C28.0466 14.6145 28.1011 14.2342 27.8832 13.9626Z" fill="#61C6FF"/>
<path d="M26.4672 16.6791H26.4127C25.977 16.6791 25.5958 16.4618 25.3235 16.0815C24.3433 14.6689 21.6748 11.1375 17.8081 8.25804C17.2636 7.8234 17.1002 7.11712 17.4269 6.5195C17.7537 5.92188 18.4617 5.65023 19.1152 5.86755C23.3085 7.28011 26.4672 10.8658 28.4277 13.6366C28.8089 14.1256 28.7545 14.8319 28.3733 15.3209L27.6108 16.2445C27.2841 16.5161 26.9029 16.6791 26.4672 16.6791ZM18.625 6.95414C18.5706 6.95414 18.5161 6.95414 18.4617 7.06279C18.4072 7.22578 18.4617 7.28011 18.5161 7.28011C22.4372 10.1596 25.1057 13.5823 26.3038 15.4295C26.3583 15.4838 26.4127 15.4838 26.4672 15.4838C26.5216 15.4838 26.5761 15.4838 26.6306 15.4295L27.393 14.5059C27.4475 14.4516 27.4475 14.3429 27.393 14.2886C24.071 9.50761 20.8034 7.66042 18.6795 6.95414H18.625Z" fill="#23a6f0"/>
<path d="M23.3081 23.3616L10.8369 11.0288C10.5646 10.7572 10.0745 10.7572 9.74771 11.0288L8.8219 11.9524C8.5496 12.2241 8.5496 12.713 8.8219 13.039L21.2386 25.3718C21.5109 25.6434 22.0011 25.6434 22.3278 25.3718L23.2536 24.4482C23.5804 24.1222 23.5804 23.6332 23.3081 23.3616Z" fill="#BDEBFF"/>
<path d="M21.8378 26.1868C21.4566 26.1868 21.1298 26.0238 20.8575 25.8065L8.44079 13.4737C8.16849 13.202 8.05957 12.8761 8.05957 12.4958C8.05957 12.1155 8.22295 11.7895 8.44079 11.5178L9.3666 10.5942C9.91119 10.0509 10.7281 10.0509 11.2727 10.5942L23.6894 22.927C24.234 23.4703 24.234 24.2852 23.6894 24.8285L22.7636 25.7521C22.5458 26.0238 22.219 26.1868 21.8378 26.1868ZM10.3469 11.4092C10.2924 11.4092 10.2924 11.4092 10.2379 11.4635L9.25768 12.4414C9.25768 12.4414 9.25768 12.4958 9.25768 12.5501C9.25768 12.6044 9.25768 12.6044 9.31214 12.6588L21.7289 24.9915C21.7833 24.9915 21.7833 24.9915 21.8378 24.9915C21.8922 24.9915 21.8922 24.9915 21.9467 24.9372L22.8725 24.0136C22.927 23.9593 22.927 23.8506 22.8725 23.7963L10.4558 11.4635C10.4013 11.4635 10.3469 11.4092 10.3469 11.4092Z" fill="#23a6f0"/>
<path d="M13.1792 6.41087C10.8374 7.22581 7.51538 9.18167 4.19336 13.9627C3.97553 14.2343 4.02998 14.6146 4.24782 14.8863L5.01025 15.8099C5.33701 16.1902 5.99052 16.1902 6.26282 15.7555C7.35201 14.18 10.0205 10.6486 13.8871 7.7691C14.5951 7.28014 13.996 6.13922 13.1792 6.41087Z" fill="#61C6FF"/>
<path d="M5.60908 16.7334C5.17341 16.7334 4.79219 16.5704 4.5199 16.2445L3.75747 15.3209C3.37625 14.8319 3.32179 14.1799 3.70301 13.6367C5.66354 10.8659 8.82219 7.22579 12.9611 5.81323C13.6146 5.59591 14.3226 5.86756 14.6493 6.46518C14.9761 7.0628 14.8127 7.82341 14.2681 8.20372C10.4015 11.0832 7.733 14.6689 6.75273 16.0815C6.48043 16.4618 6.09922 16.6791 5.66354 16.6791C5.66354 16.7334 5.60908 16.7334 5.60908 16.7334ZM13.4512 6.95414C13.3968 6.95414 13.3968 6.95414 13.3968 6.95414C11.2729 7.66043 8.05975 9.50762 4.73773 14.2886C4.68327 14.3429 4.68327 14.4516 4.73773 14.5059L5.50017 15.4295C5.55462 15.4839 5.60908 15.4839 5.66354 15.4839C5.718 15.4839 5.77246 15.4839 5.82692 15.4295C7.07949 13.6367 9.69354 10.1596 13.6146 7.28012C13.6691 7.28012 13.7235 7.17146 13.6691 7.0628C13.5057 7.00847 13.4512 6.95414 13.4512 6.95414Z" fill="#23a6f0"/>
<path d="M17.3725 10.0509L16.3922 8.96436C16.1744 8.69271 15.7387 8.69271 15.5209 8.96436L14.5406 10.1053C14.3772 10.2683 14.3227 10.5399 14.4317 10.7572L15.3575 12.7131C15.5753 13.1477 16.1744 13.1477 16.3922 12.7131L17.4269 10.7572C17.5358 10.4856 17.5358 10.2139 17.3725 10.0509Z" fill="#61C6FF"/>
</svg>
