<svg xmlns="http://www.w3.org/2000/svg" viewBox="0 0 579.45 150.46"><defs><style>.cls-1{fill:#0088a5;}.cls-2{fill:#00495c;}</style></defs><title>Asset 3</title><g id="Layer_2" data-name="Layer 2"><g id="Layer_1-2" data-name="Layer 1"><circle class="cls-1" cx="14.81" cy="14.81" r="14.81"/><circle class="cls-2" cx="56.84" cy="57.25" r="14.81"/><path class="cls-2" d="M24.63,94.73H43.1v19.63H5V40.73a22.09,22.09,0,0,0,19.63,0Z" transform="translate(0 -6.07)"/><path class="cls-2" d="M107.23,50.17a55,55,0,0,0-8.07-.59H86.33A32.06,32.06,0,0,0,57.13,30.7H34.66a22.18,22.18,0,0,0,0-19.63H57.13A51.73,51.73,0,0,1,107.23,50.17Z" transform="translate(0 -6.07)"/><path class="cls-2" d="M99.16,77.06a28.37,28.37,0,0,1,7.3,1,51.85,51.85,0,0,1-35.88,34.56V91.77A32.26,32.26,0,0,0,85.75,77.06Z" transform="translate(0 -6.07)"/><path class="cls-1" d="M150.8,104.89a51.7,51.7,0,0,1-51.64,51.64H47V82.91a22.94,22.94,0,0,0,2.33,1,22.16,22.16,0,0,0,17.29-1v54H99.16a32,32,0,0,0,12.06-61.68c-.61-.25-1.23-.48-1.85-.69s-1.25-.4-1.89-.57a32.12,32.12,0,0,0-8.32-1.1H76.69a22.13,22.13,0,0,0,.51-18.5c-.16-.38-.33-.75-.51-1.12H99.16a51.49,51.49,0,0,1,8.93.77c.69.12,1.37.25,2,.4s1.37.31,2,.49A51.73,51.73,0,0,1,150.8,104.89Z" transform="translate(0 -6.07)"/><path class="cls-2" d="M192.83,89.37V15.77h34.8A48.13,48.13,0,0,1,249,20.29,34.85,34.85,0,0,1,263.43,33q5.2,8.19,5.21,19.45t-5.21,19.61A34.67,34.67,0,0,1,249,84.85a48,48,0,0,1-21.35,4.52Zm20.82-16.61h12.93a23.78,23.78,0,0,0,11.09-2.42,17.53,17.53,0,0,0,7.31-7,21.51,21.51,0,0,0,2.63-10.88A20.92,20.92,0,0,0,245,41.69a17.8,17.8,0,0,0-7.31-6.89,23.9,23.9,0,0,0-11.09-2.42H213.65Z" transform="translate(0 -6.07)"/><path class="cls-2" d="M279.68,89.37V15.77h34.8a48.05,48.05,0,0,1,21.34,4.52A34.82,34.82,0,0,1,350.28,33q5.21,8.19,5.21,19.45t-5.21,19.61a34.63,34.63,0,0,1-14.46,12.77,47.92,47.92,0,0,1-21.34,4.52ZM300.5,72.76h12.93a23.78,23.78,0,0,0,11.09-2.42,17.53,17.53,0,0,0,7.31-7,21.51,21.51,0,0,0,2.63-10.88,20.92,20.92,0,0,0-2.63-10.78,17.8,17.8,0,0,0-7.31-6.89,23.9,23.9,0,0,0-11.09-2.42H300.5Z" transform="translate(0 -6.07)"/><path class="cls-2" d="M403.54,90.85A45.68,45.68,0,0,1,387.29,88a38.19,38.19,0,0,1-13-8.05,37.22,37.22,0,0,1-11.67-27.49,36.61,36.61,0,0,1,3.1-15.14,37.85,37.85,0,0,1,21.5-20.19,48.2,48.2,0,0,1,32.6,0,38.8,38.8,0,0,1,12.93,8,36.77,36.77,0,0,1,11.67,27.34,38.14,38.14,0,0,1-3.05,15.4A36.3,36.3,0,0,1,432.82,80a39.49,39.49,0,0,1-13,8A45.56,45.56,0,0,1,403.54,90.85Zm0-17.25a20.66,20.66,0,0,0,7.83-1.47,18.06,18.06,0,0,0,6.31-4.26,20.19,20.19,0,0,0,4.21-6.62,23.48,23.48,0,0,0,1.52-8.68,23.46,23.46,0,0,0-1.52-8.67,20.24,20.24,0,0,0-4.21-6.63A18.17,18.17,0,0,0,411.37,33a21.48,21.48,0,0,0-15.67,0,18.85,18.85,0,0,0-6.36,4.25,19.14,19.14,0,0,0-4.2,6.63,23.89,23.89,0,0,0-1.47,8.67,23.91,23.91,0,0,0,1.47,8.68,19.1,19.1,0,0,0,4.2,6.62,18.73,18.73,0,0,0,6.36,4.26A20.68,20.68,0,0,0,403.54,73.6Z" transform="translate(0 -6.07)"/><path class="cls-2" d="M470,89.37V32.28H447.38V15.77h65.93V32.28h-22.5V89.37Z" transform="translate(0 -6.07)"/><path class="cls-2" d="M546.75,90.85a66.66,66.66,0,0,1-17.51-2.27,45.11,45.11,0,0,1-13.51-5.73l6.83-15.45A48.13,48.13,0,0,0,534,72.6a42.35,42.35,0,0,0,12.88,2.05,26.42,26.42,0,0,0,7-.73,7.74,7.74,0,0,0,3.79-2.11,4.77,4.77,0,0,0,1.21-3.26,4.31,4.31,0,0,0-2.31-3.83,23.17,23.17,0,0,0-6-2.42q-3.74-1-8.1-1.89A82.53,82.53,0,0,1,533.5,58a33.89,33.89,0,0,1-8.2-3.89,18.43,18.43,0,0,1-5.94-6.31,19.18,19.18,0,0,1-2.26-9.78,21,21,0,0,1,3.57-11.88,24.72,24.72,0,0,1,10.83-8.62q7.26-3.25,18.09-3.26a62.33,62.33,0,0,1,14.24,1.63,42.23,42.23,0,0,1,12.36,4.89l-6.31,15.35a45.17,45.17,0,0,0-10.41-4.31,39,39,0,0,0-10-1.37,21,21,0,0,0-6.94,1,8.22,8.22,0,0,0-3.78,2.42A5,5,0,0,0,537.6,37,4.4,4.4,0,0,0,539.91,41a20.93,20.93,0,0,0,6,2.32c2.45.59,5.16,1.21,8.15,1.84a91.63,91.63,0,0,1,8.88,2.36,35.52,35.52,0,0,1,8.15,3.79,17.53,17.53,0,0,1,8.36,15.82,20.81,20.81,0,0,1-3.63,11.83,25.06,25.06,0,0,1-10.88,8.68Q557.68,90.85,546.75,90.85Z" transform="translate(0 -6.07)"/><path class="cls-1" d="M195.75,155.24v-42.6h6.51l18.62,31.1h-3.4l18.31-31.1h6.52l.12,42.6h-7.61V124.39h1.52l-15.46,26.05h-3.59l-15.82-26h1.82v30.85Z" transform="translate(0 -6.07)"/><path class="cls-1" d="M304.39,148.55h24v6.69H296.47v-42.6h31.1v6.7H304.39Zm-.61-18.2H325v6.51H303.78Z" transform="translate(0 -6.07)"/><path class="cls-1" d="M379.85,155.24v-42.6h18.69a26.48,26.48,0,0,1,12.08,2.65,19.63,19.63,0,0,1,8.18,7.45,22.94,22.94,0,0,1,0,22.4,19.65,19.65,0,0,1-8.18,7.46,26.61,26.61,0,0,1-12.08,2.64Zm7.91-6.69h10.29a17.75,17.75,0,0,0,8.31-1.83,13.49,13.49,0,0,0,5.47-5.11,14.69,14.69,0,0,0,2-7.73,14.38,14.38,0,0,0-2-7.67,13.69,13.69,0,0,0-5.47-5,17.87,17.87,0,0,0-8.31-1.82H387.76Z" transform="translate(0 -6.07)"/><path class="cls-1" d="M472.73,155.24v-42.6h7.91v42.6Z" transform="translate(0 -6.07)"/><path class="cls-1" d="M528.72,155.24l19.17-42.6h7.79l19.23,42.6h-8.34l-16.43-38.4h3.17l-16.5,38.4Zm8.82-9.85,2.19-6.21h22.95l2.13,6.21Z" transform="translate(0 -6.07)"/></g></g></svg>