<svg version="1.2" xmlns="http://www.w3.org/2000/svg" viewBox="0 0 291 291" width="291" height="291">
	<title>brand-svgrepo-com-svg</title>
	<style>
		.s0 { fill: #ffffff } 
		.s1 { fill: #2f4361 } 
		.s2 { fill: #333333 } 
	</style>
	<g id="Layer">
		<g id="Layer">
			<path id="Layer" class="s0" d="m161.9 42.9l-161.9 161.9 85.7 85.7 161.9-161.9-14.3-71.5z"/>
			<path id="Layer" fill-rule="evenodd" class="s1" d="m86.7 218.1c2.8 2.8 4.4 6.5 4.4 10.5 0 3.9-1.6 7.7-4.4 10.5l-15.3 15.3-35.3-35.4 15.3-15.2c5.8-5.8 15.2-5.8 21 0 2.7 2.7 4.2 6.2 4.4 9.9 3.6 0.2 7.1 1.6 9.9 4.4zm-5.2 10.5c0-1.5-0.5-2.8-1.5-3.8-2.1-2.1-5.5-2.1-7.6 0l-7.1 7.1-6.8-6.7 7.2-7.1c1-1 1.5-2.4 1.5-3.8 0-1.4-0.5-2.8-1.5-3.8-2.1-2.1-5.5-2.1-7.6 0l-8.5 8.5 21.8 21.9 8.6-8.6c1-1 1.5-2.3 1.5-3.7z"/>
			<path id="Layer" fill-rule="evenodd" class="s1" d="m193.8 96.6c4.8 4.7 7.4 11 7.4 17.7 0 6.7-2.6 12.9-7.4 17.6l-8.1 8.2-35.3-35.3 8.1-8.2c9.8-9.7 25.6-9.7 35.3 0zm-2.2 17.7c0-4.1-1.6-8-4.5-10.9-6-6.1-15.8-6.1-21.8 0l-1.4 1.4 21.8 21.8 1.4-1.4c2.9-2.9 4.5-6.8 4.5-10.9z"/>
			<path id="Layer" class="s1" d="m106.7 219l-28.5-28.5 8.5-8.6c2.1-2 5.5-2 7.6 0 1 1 1.5 2.4 1.5 3.8 0 1.4-0.5 2.8-1.5 3.8l-7.2 7.1 6.7 6.8 6.9-6.9 17.9 10.7 6.9-7-20.4-12.2c0.1-0.8 0.2-1.5 0.2-2.3 0-4-1.5-7.7-4.3-10.5-5.8-5.8-15.2-5.8-21 0l-15.3 15.3 35.3 35.3z"/>
			<path id="Layer" fill-rule="evenodd" class="s1" d="m128.6 197.2l-35.3-35.3 25.7-25.8 35.4 35.3-6.8 6.8-14.3-14.3-12.3 12.3 14.3 14.3zm-14.3-27.8l12.3-12.3-7.5-7.5-12.3 12.3z"/>
			<path id="Layer" class="s1" d="m182.9 142.9l-35.3-35.3-6.7 6.7 20.8 20.8-34.7-6.9-5.2 5.1 35.3 35.3 6.8-6.7-20.8-20.8 34.7 6.9z"/>
			<path id="Layer" fill-rule="evenodd" class="s2" d="m290.5 50c0 27.6-22.5 50-50 50-6.9 0-13.4-1.4-19.5-4-3.2 2.5-7.1 4-11.5 4-10.5 0-19-8.5-19-19 0-10.6 8.5-19.1 19-19.1 10.5 0 19.1 8.5 19.1 19.1 0 2.5-0.5 4.9-1.5 7.1 4.3 1.5 8.7 2.4 13.4 2.4 22.3 0 40.5-18.2 40.5-40.5 0-22.3-18.2-40.5-40.5-40.5-21.5 0-39.1 16.9-40.4 38.1h-9.5c1.3-26.4 23.1-47.6 49.9-47.6 27.5 0 50 22.4 50 50zm-81 21.4c-1 0-2 0.2-2.9 0.5 3.1 4.9 7.2 9 11.9 12.1 0.3-1 0.5-2 0.5-3 0-5.3-4.2-9.6-9.5-9.6zm1.5 18.9c-4.1-3-7.8-6.6-10.9-10.8 0 0.5-0.1 0.9-0.1 1.5 0 5.2 4.3 9.5 9.5 9.5q0.8 0 1.5-0.2z"/>
		</g>
	</g>
</svg>