<svg version="1.2" xmlns="http://www.w3.org/2000/svg" viewBox="0 0 512 512" width="512" height="512">
	<title>digital-marketing-promotion-advertising-svgrepo-com-svg</title>
	<style>
		.s0 { fill: #ffffff } 
	</style>
	<g id="Layer">
		<g id="Layer">
			<path id="Layer" fill-rule="evenodd" class="s0" d="m486.8 122.8v321c0 9.9-8.1 18-18 18h-161.8l19 42.2h11.6c2.2 0 4 1.8 4 4 0 2.2-1.8 4-4 4h-163.4c-2.2 0-4-1.8-4-4 0-2.2 1.8-4 4-4h11.6l19.2-42.2h-161.8c-9.9 0-18-8.1-18-18v-321c0-10 8-18 17.9-18h24.4v-90.9c0-7.7 6.2-13.9 13.9-13.9h349.2c7.7 0 13.9 6.3 13.9 14v90.8h24.3c9.9 0 18 8.1 18 18zm-411.4-69.4h361.1v-39.4c0-3.3-2.6-6-5.9-6h-349.3c-3.2 0-5.9 2.6-5.9 5.9zm0 355.4h361.1v-347.4h-361.1zm-42.2-0.1h34.2v-295.9h-24.3c-5.5 0-9.9 4.5-9.9 10zm265 53.1h-84.5l-19.1 42.2h122.7zm180.6-45.1h-445.7v27.1c0 5.5 4.5 10 10 10h425.7c5.5 0 10-4.5 10-10zm0-293.9c0-5.4-4.6-10-10-10h-24.3v295.9h34.3z"/>
		</g>
		<g id="Layer">
			<g id="Layer">
				<g id="Layer">
					<path id="Layer" fill-rule="evenodd" class="s0" d="m354.8 289.2c-5.1 2.2-4 1-155.5-8.7l-1.8 0.7c0.4 3.1-0.2 5.5-0.7 7.4-1.3 5 0 8 4.4 10.6 7.6 4.4 10.3 11.2 8.1 19.6-1.3 5-0.1 8 4.4 10.6 7.6 4.4 10.4 11.1 8.1 19.6-3 11.4 7.7 8.2 12.1 18.8 0.4 1 0.4 2.1 0 3.1-0.4 1-1.2 1.8-2.2 2.2l-31.9 13.2c-5.6 2.3-12.1-0.3-14.5-6l-33.5-80.9c-3.6 0-6.9-1.9-8.8-5.1l-8.4 3.5c-5.3 2.2-11.3-0.4-13.4-5.6l-18.9-45.6c-2.1-5.2 0.3-11.2 5.6-13.4l8.3-3.4c-1.3-5.1 1.4-10.1 6-12l43.6-18.1c108.6-123.2 100.7-114.8 103.8-116.1 18.9-7.8 50.2 39.9 71.4 91 21.2 51.2 32.7 107 13.8 114.6zm-215.1-2.1l-20.6-49.8-8.2 3.4c-1.1 0.5-1.7 1.9-1.2 3l18.9 45.6c0.5 1.1 1.8 1.7 3 1.2zm12.9 4.2h0.1l40.7-16.9-27.4-66.1-40.8 16.9c-1.1 0.5-1.7 1.8-1.2 3l25.7 62c0.5 1.1 1.8 1.6 2.9 1.1zm6.9 5.8l33.2 80.2c0.7 1.6 2.5 2.4 4.1 1.7l27.3-11.3c-0.5-0.4-1.1-0.7-1.8-1.1-7.6-4.4-10.3-11.1-8.1-19.5 1.3-4.9 0.1-8-4.4-10.6-7.6-4.4-10.3-11.2-8.1-19.6 1.3-5 0-8-4.4-10.6-7.6-4.4-10.3-11.1-8.1-19.5 0.2-0.8 0.4-1.5 0.5-2.1 0.4-0.2-29.2 12.1-30.2 12.4zm173.5-16c-19.7-18.7-38.9-57-49.5-82.6-10.6-25.4-24.2-66.2-23.4-93.4l-87.2 98.8 28.5 68.9zm0.6-103.5c-10.1-24.4-45-93.2-60.9-86.6-12 5 1.4 56 5.2 68.5l1.2-0.5c19.4-8.1 41.8 1.2 49.8 20.6 8.1 19.4-1.2 41.8-20.6 49.8l-1.2 0.5c6.1 11.5 32.8 57.1 44.7 52.1 8.9-3.6 6.3-45.1-18.2-104.4zm-42.8 17.8c3.9 9.6 8.1 18.8 12.5 27.4l1.8-0.7c15.3-6.3 22.6-24 16.3-39.3-6.3-15.3-24-22.6-39.3-16.3l-1.8 0.7c3 9.2 6.6 18.7 10.5 28.2z"/>
				</g>
			</g>
			<g id="Layer">
				<g id="Layer">
					<path id="Layer" class="s0" d="m397.9 236.6l-19.8-7.4c-2.1-0.8-3.1-3.1-2.3-5.2 0.8-2.1 3.1-3.1 5.2-2.3l19.8 7.4c2.1 0.8 3.1 3.1 2.3 5.2-0.9 2.1-3.2 3.1-5.2 2.3z"/>
				</g>
				<g id="Layer">
					<path id="Layer" class="s0" d="m385.3 195.6c-2.2 0-3.9-1.7-4-3.9-0.1-2.2 1.7-4 3.9-4.1l21.2-0.5h0.1c2.2 0 3.9 1.7 4 3.9 0.1 2.2-1.7 4-3.9 4.1-0.5 0.1-22.7 0.6-21.3 0.5z"/>
				</g>
				<g id="Layer">
					<path id="Layer" class="s0" d="m374.7 160.7c-0.8-2 0.1-4.4 2.2-5.2l19.5-8.1c2-0.8 4.4 0.1 5.2 2.2 0.8 2-0.1 4.4-2.2 5.2l-19.5 8.1c-2 0.8-4.4-0.2-5.2-2.2z"/>
				</g>
				<g id="Layer">
					<path id="Layer" class="s0" d="m357.4 134.1c-1.5-1.6-1.5-4.1 0.1-5.7l15.3-14.6c1.6-1.5 4.1-1.5 5.7 0.1 1.5 1.6 1.5 4.1-0.1 5.7l-15.4 14.6c-1.6 1.5-4.1 1.5-5.6-0.1z"/>
				</g>
				<g id="Layer">
					<path id="Layer" class="s0" d="m330.6 115.1c-2-0.9-2.9-3.3-2-5.3l8.7-19.3c0.9-2 3.3-2.9 5.3-2 2 0.9 2.9 3.3 2 5.3l-8.7 19.3c-0.9 2.1-3.3 2.9-5.3 2z"/>
				</g>
			</g>
		</g>
	</g>
</svg>