<?xml version="1.0" encoding="UTF-8" standalone="no"?> <svg width="64" height="64" viewBox="0 0 64 64" fill="fff" xmlns="http://www.w3.org/2000/svg">
<path d="M58 17C58.0014 16.3724 57.8044 15.7603 57.4371 15.2513C57.0698 14.7424 56.5511 14.3625 55.955 14.166L51 19.121V31C51 31.7956 50.6839 32.5587 50.1213 33.1213C49.5587 33.6839 48.7956 34 48 34H16C15.2044 34 14.4413 33.6839 13.8787 33.1213C13.3161 32.5587 13 31.7956 13 31V14H9C8.20435 14 7.44129 14.3161 6.87868 14.8787C6.31607 15.4413 6 16.2044 6 17V40H58V17Z" fill="#23a6f0"/>
<path d="M25.883 50L25.133 56H38.867L38.117 50H25.883Z" fill="#23a6f0"/>
<path d="M15 31C15 31.2652 15.1054 31.5196 15.2929 31.7071C15.4804 31.8946 15.7348 32 16 32H48C48.2652 32 48.5196 31.8946 48.7071 31.7071C48.8946 31.5196 49 31.2652 49 31V30H15V31Z" fill="#23a6f0"/>
<path d="M49 21.121L48.433 21.688C48.3229 21.7976 48.1892 21.8804 48.042 21.93L45.921 22.637C45.819 22.6706 45.7124 22.6878 45.605 22.688C45.3412 22.6887 45.0878 22.5852 44.9 22.4L43.485 23.814L42.069 22.4L43.484 20.986C43.3528 20.8547 43.2608 20.6894 43.2183 20.5087C43.1757 20.328 43.1843 20.1391 43.243 19.963L43.95 17.841C43.9996 17.6938 44.0824 17.5601 44.192 17.45L49 12.636V12H15V28H49V21.121Z" fill="#23a6f0"/>
<path d="M58 42H6V45C6 45.7956 6.31607 46.5587 6.87868 47.1213C7.44129 47.6839 8.20435 48 9 48H55C55.7956 48 56.5587 47.6839 57.1213 47.1213C57.6839 46.5587 58 45.7956 58 45V42ZM54 46H52V44H54V46Z" fill="#23a6f0"/>
<path d="M21 59C21 59.2652 21.1054 59.5196 21.2929 59.7071C21.4804 59.8946 21.7348 60 22 60H42C42.2652 60 42.5196 59.8946 42.7071 59.7071C42.8946 59.5196 43 59.2652 43 59C43 58.7348 42.8946 58.4804 42.7071 58.2929C42.5196 58.1054 42.2652 58 42 58H22C21.7348 58 21.4804 58.1054 21.2929 58.2929C21.1054 58.4804 21 58.7348 21 59Z" fill="#23a6f0"/>
<path d="M58.3335 6.13196L56.9193 7.54617L58.3335 8.96039L59.7477 7.54617L58.3335 6.13196Z" fill="#23a6f0"/>
<path d="M48 4H16C15.7348 4 15.4804 4.10536 15.2929 4.29289C15.1054 4.48043 15 4.73478 15 5V10H49V5C49 4.73478 48.8946 4.48043 48.7071 4.29289C48.5196 4.10536 48.2652 4 48 4V4ZM21 8H17V6H21V8ZM27 8H23V6H27V8ZM41 8H37V6H41V8ZM47 8H43V6H47V8Z" fill="#23a6f0"/>
<path d="M55.504 8.96001L45.772 18.692L45.334 20.004L45.875 20.544L47.186 20.107L56.919 10.374L55.504 8.96001Z" fill="#23a6f0"/>
</svg>
